<?xml version="1.0" encoding="UTF-8" standalone="no"?>
<svg
   xmlns:dc="http://purl.org/dc/elements/1.1/"
   xmlns:cc="http://creativecommons.org/ns#"
   xmlns:rdf="http://www.w3.org/1999/02/22-rdf-syntax-ns#"
   xmlns:svg="http://www.w3.org/2000/svg"
   xmlns="http://www.w3.org/2000/svg"
   xmlns:sodipodi="http://sodipodi.sourceforge.net/DTD/sodipodi-0.dtd"
   xmlns:inkscape="http://www.inkscape.org/namespaces/inkscape"
   width="256"
   height="307"
   viewBox="0 0 256 307"
   version="1.1"
   preserveAspectRatio="xMidYMid"
   id="svg2"
   inkscape:version="0.91 r13725"
   sodipodi:docname="symfony-seeklogo.com.svg">
  <metadata
     id="metadata14">
    <rdf:RDF>
      <cc:Work
         rdf:about="">
        <dc:format>image/svg+xml</dc:format>
        <dc:type
           rdf:resource="http://purl.org/dc/dcmitype/StillImage" />
        <dc:title></dc:title>
      </cc:Work>
    </rdf:RDF>
  </metadata>
  <defs
     id="defs12" />
  <sodipodi:namedview
     pagecolor="#ffffff"
     bordercolor="#666666"
     borderopacity="1"
     objecttolerance="10"
     gridtolerance="10"
     guidetolerance="10"
     inkscape:pageopacity="0"
     inkscape:pageshadow="2"
     inkscape:window-width="811"
     inkscape:window-height="480"
     id="namedview10"
     showgrid="false"
     inkscape:zoom="0.91828794"
     inkscape:cx="128"
     inkscape:cy="236.06293"
     inkscape:window-x="2508"
     inkscape:window-y="321"
     inkscape:window-maximized="0"
     inkscape:current-layer="svg2" />
  <g
     id="g4"
     transform="translate(0,50)">
    <circle
       cx="128"
       cy="128.82707"
       r="128"
       id="circle6"
       style="fill:#1a171b" />
    <path
       d="m 183.7056,48.124062 c -12.98511,0.452923 -24.32,7.609107 -32.75619,17.510399 -9.34203,10.8544 -15.55692,23.729231 -20.03495,36.871879 -8.01083,-6.565417 -14.19027,-15.064617 -27.04147,-18.770709 -9.932805,-2.851446 -20.36579,-1.673846 -29.959882,5.474461 -4.544985,3.394954 -7.676062,8.52677 -9.1648,13.351388 -3.855754,12.53612 4.052677,23.69378 7.644553,27.6992 l 7.853293,8.41649 c 1.618708,1.65021 5.517784,5.95495 3.611569,12.12652 -2.059815,6.71114 -10.149415,11.05526 -18.447754,8.49526 -3.706092,-1.13034 -9.030892,-3.8912 -7.837538,-7.77846 0.492307,-1.59114 1.630523,-2.78055 2.240984,-4.15507 0.559262,-1.18154 0.827077,-2.0677 0.996431,-2.58757 1.516308,-4.95065 -0.555323,-11.39004 -5.856492,-13.0245 -4.946708,-1.5163 -10.007631,-0.31507 -11.968985,6.05342 -2.225231,7.23495 1.236677,20.36578 19.782892,26.08443 21.728493,6.67569 40.109289,-5.15545 42.716559,-20.58634 1.64233,-9.66498 -2.72148,-16.8448 -10.716558,-26.08049 l -6.514216,-7.20345 c -3.946338,-3.9424 -5.301169,-10.661412 -1.216984,-15.824735 3.446153,-4.355939 8.353476,-6.214893 16.391878,-4.029047 11.73268,3.186216 16.96295,11.327012 25.69058,17.892432 -3.60369,11.81932 -5.95889,23.68197 -8.0896,34.31975 l -1.29969,7.93206 c -6.23852,32.72074 -11.00012,50.688 -23.374769,61.00283 -2.493046,1.77231 -6.057353,4.42684 -11.429415,4.61194 -2.816,0.0866 -3.725784,-1.85107 -3.765169,-2.6939 -0.06695,-1.97711 1.599015,-2.88296 2.705723,-3.77305 1.654154,-0.90191 4.155077,-2.39852 3.985723,-7.19163 -0.181169,-5.66351 -4.871877,-10.57477 -11.653908,-10.35028 -5.080615,0.17329 -12.82363,4.95459 -12.532184,13.70585 0.303261,9.03877 8.72763,15.81292 21.429169,15.38363 6.789908,-0.23237 21.95299,-2.99717 36.89551,-20.75963 17.39224,-20.36185 22.25624,-43.70511 25.91507,-60.79016 l 4.08419,-22.55556 c 2.26855,0.27175 4.69464,0.45292 7.33341,0.51593 21.66154,0.45687 32.49625,-10.76381 32.65773,-18.924304 0.10634,-4.938831 -3.24136,-9.798892 -7.92813,-9.688615 -3.35557,0.09452 -7.56972,2.327631 -8.5819,6.967138 -0.98856,4.552861 6.8923,8.660681 0.73255,12.650341 -4.37563,2.83175 -12.22105,4.82855 -23.26843,3.2059 l 2.00861,-11.10252 c 4.09994,-21.055013 9.15693,-46.954336 28.34117,-47.58449 1.39816,-0.07089 6.51422,0.06302 6.63237,3.446154 0.0354,1.130338 -0.24418,1.417846 -1.5675,4.005415 -1.34696,2.016492 -1.85502,3.733662 -1.792,5.706831 0.1851,5.376 4.27323,8.9088 10.18486,8.696123 7.91631,-0.256 10.19274,-7.963569 10.06277,-11.921723 -0.31902,-9.298708 -10.12185,-15.174892 -23.09908,-14.749538 l 0,0 z"
       id="path8"
       inkscape:connector-curvature="0"
       style="fill:#ffffff" />
  </g>
</svg>
