<?xml version="1.0" encoding="UTF-8" standalone="no"?>
<svg
   xmlns:dc="http://purl.org/dc/elements/1.1/"
   xmlns:cc="http://creativecommons.org/ns#"
   xmlns:rdf="http://www.w3.org/1999/02/22-rdf-syntax-ns#"
   xmlns:svg="http://www.w3.org/2000/svg"
   xmlns="http://www.w3.org/2000/svg"
   xmlns:sodipodi="http://sodipodi.sourceforge.net/DTD/sodipodi-0.dtd"
   xmlns:inkscape="http://www.inkscape.org/namespaces/inkscape"
   version="1.1"
   width="720px"
   height="490px"
   preserveAspectRatio="xMinYMin meet"
   viewport="0 0 720 490"
   id="svg2"
   inkscape:version="0.91 r13725"
   sodipodi:docname="Arduino_Logo.svg">
  <metadata
     id="metadata26">
    <rdf:RDF>
      <cc:Work
         rdf:about="">
        <dc:format>image/svg+xml</dc:format>
        <dc:type
           rdf:resource="http://purl.org/dc/dcmitype/StillImage" />
      </cc:Work>
    </rdf:RDF>
  </metadata>
  <defs
     id="defs24" />
  <sodipodi:namedview
     pagecolor="#ffffff"
     bordercolor="#666666"
     borderopacity="1"
     objecttolerance="10"
     gridtolerance="10"
     guidetolerance="10"
     inkscape:pageopacity="0"
     inkscape:pageshadow="2"
     inkscape:window-width="1920"
     inkscape:window-height="1016"
     id="namedview22"
     showgrid="false"
     inkscape:zoom="1.2325395"
     inkscape:cx="417.64949"
     inkscape:cy="199.35899"
     inkscape:window-x="1920"
     inkscape:window-y="35"
     inkscape:window-maximized="1"
     inkscape:current-layer="svg2" />
  <g
     id="g4"
     transform="matrix(0.99212396,0,0,0.98807549,3.6671634,4.0566652)"
     style="fill:none;stroke:#00979c;stroke-width:60;stroke-opacity:1">
    <path
       style="color:#000000;font-style:normal;font-variant:normal;font-weight:normal;font-stretch:normal;font-size:medium;line-height:normal;font-family:sans-serif;text-indent:0;text-align:start;text-decoration:none;text-decoration-line:none;text-decoration-style:solid;text-decoration-color:#000000;letter-spacing:normal;word-spacing:normal;text-transform:none;direction:ltr;block-progression:tb;writing-mode:lr-tb;baseline-shift:baseline;text-anchor:start;white-space:normal;clip-rule:nonzero;display:inline;overflow:visible;visibility:visible;opacity:1;isolation:auto;mix-blend-mode:normal;color-interpolation:sRGB;color-interpolation-filters:linearRGB;solid-color:#000000;solid-opacity:1;fill:#00979c;fill-opacity:1;fill-rule:nonzero;stroke:none;stroke-width:60;stroke-linecap:butt;stroke-linejoin:miter;stroke-miterlimit:4;stroke-dasharray:none;stroke-dashoffset:0;stroke-opacity:1;color-rendering:auto;image-rendering:auto;shape-rendering:auto;text-rendering:auto;enable-background:accumulate"
       d="M 174,0 C 78.02236,0 -1.5449219,75.824856 -1.5449219,170 c 0,94.17514 79.5672819,170 175.5449219,170 54.33475,2.42415 98.13362,-17.93478 130.17773,-47.47266 21.9079,-20.19442 39.11412,-44.04182 54.82227,-68.3457 15.70815,24.30388 32.91437,48.15128 54.82227,68.3457 C 445.86638,322.06522 489.66525,342.42415 544,340 639.97764,340 719.54492,264.17514 719.54492,170 719.54492,75.824856 639.97764,0 544,0 486.75,0 441.54929,22.243543 408.1582,53.134766 388.87704,70.972417 373.19195,91.351325 359,112.21289 344.80805,91.351325 329.12296,70.972417 309.8418,53.134766 276.45071,22.243543 231.25,0 174,0 Z m 0,60 c 42.75,0 70.04929,14.006457 95.0957,37.177734 19.85542,18.368916 37.288,43.327086 54.54688,70.574216 -19.69503,31.83055 -38.74217,60.94058 -60.13281,80.65821 -23.58087,21.73655 -48.00599,33.73231 -87.9336,31.63086 L 174.78906,280 174,280 C 109.21346,280 58.455078,230.46458 58.455078,170 58.455078,109.53542 109.21346,60 174,60 Z m 370,0 c 64.78654,0 115.54492,49.53542 115.54492,110 0,60.46458 -50.75838,110 -115.54492,110 l -0.78906,0 -0.78711,0.041 c -39.92761,2.10145 -64.35273,-9.89431 -87.9336,-31.63086 C 433.09959,228.69253 414.05245,199.5825 394.35742,167.75195 411.6163,140.50482 429.04888,115.54665 448.9043,97.177734 473.95071,74.006457 501.25,60 544,60 Z"
       id="path6"
       inkscape:connector-curvature="0" />
  </g>
  <g
     font-size="152"
     font-weight="bold"
     letter-spacing="0.1em"
     text-anchor="left"
     id="g18"
     transform="translate(-2,-6)"
     style="font-weight:bold;font-size:152px;font-family:Consolas;letter-spacing:0.1em;fill:#00979c;stroke:#00979c;stroke-width:2">
    <g
       transform="scale(1.0171639,0.98312568)"
       style="font-size:182.28144836px;stroke-width:2.39844012"
       id="text20">
      <path
         d="m 83.275567,494.84543 -6.408332,-22.96319 -40.586104,0 -6.586341,22.96319 -21.7171256,0 34.4447856,-116.32903 30.617587,0 34.444783,116.32903 z m -26.43437,-94.96792 -15.308793,54.1148 30.439577,0 z"
         style="font-size:182.28144836px;stroke-width:2.39844012"
         id="path3057"
         inkscape:connector-curvature="0" />
      <path
         d="m 178.15448,494.84543 -16.37685,-37.38194 c -1.54279,-3.56014 -3.69374,-6.24511 -6.45283,-8.05492 -2.75919,-1.80971 -6.00785,-2.71459 -9.74601,-2.71464 l -4.18321,0 0,48.1515 -21.89514,0 0,-116.32903 33.91076,0 c 6.40828,1.2e-4 12.22324,0.54898 17.4449,1.64658 5.22154,1.09784 9.67177,2.92243 13.3507,5.47379 3.67877,2.55157 6.51208,5.87441 8.49994,9.96851 1.98768,4.09431 2.98156,9.10823 2.98165,15.04178 -9e-5,4.27231 -0.62312,8.06983 -1.8691,11.39259 -1.24614,3.32291 -2.99657,6.18589 -5.25127,8.58895 -2.25486,2.40319 -4.93983,4.34645 -8.05491,5.8298 -3.11524,1.48347 -6.51224,2.52186 -10.19103,3.11516 2.84808,0.59342 5.45888,2.21034 7.8324,4.85075 2.37339,2.64052 4.74684,6.45288 7.12037,11.4371 l 18.60197,38.98402 z m -5.42928,-82.06226 c -6e-5,-5.6962 -1.80982,-9.79041 -5.42928,-12.28263 -3.61958,-2.49203 -9.04885,-3.7381 -16.28784,-3.7382 l -9.6125,0 0,32.84271 8.90046,0 c 3.38213,6e-5 6.45278,-0.35596 9.21198,-1.06806 2.75909,-0.71197 5.11771,-1.78002 7.07586,-3.20416 1.95804,-1.42401 3.47112,-3.18926 4.53924,-5.29578 1.06799,-2.10636 1.60202,-4.52432 1.60208,-7.25388 z"
         style="font-size:182.28144836px;stroke-width:2.39844012"
         id="path3059"
         inkscape:connector-curvature="0" />
      <path
         d="m 303.918,435.21234 c -1e-4,9.01918 -1.11265,17.2076 -3.33767,24.56527 -2.22521,7.35774 -5.69639,13.63256 -10.41354,18.82448 -4.71733,5.19194 -10.7548,9.19715 -18.11244,12.01562 -7.35777,2.81848 -16.16922,4.22772 -26.43437,4.22772 l -29.54953,0 0,-116.32903 34.44478,0 c 8.90041,1.2e-4 16.68831,1.11267 23.36371,3.33767 6.67528,2.22523 12.23806,5.6519 16.68837,10.28003 4.45014,4.62834 7.78781,10.50264 10.01302,17.62292 2.22502,7.12045 3.33757,15.60554 3.33767,25.45532 z m -23.49722,1.42407 c -7e-5,-6.28959 -0.50443,-11.89688 -1.51308,-16.82187 -1.00879,-4.92484 -2.71471,-9.09322 -5.11776,-12.50515 -2.40319,-3.41175 -5.62219,-6.00772 -9.657,-7.7879 -4.03493,-1.78 -9.04885,-2.67004 -15.04178,-2.67014 l -11.12558,0 0,79.65913 9.6125,0 c 10.73984,2e-5 18.89859,-3.20415 24.47627,-9.6125 5.57755,-6.4083 8.36636,-16.49548 8.36643,-30.26157 z"
         style="font-size:182.28144836px;stroke-width:2.39844012"
         id="path3061"
         inkscape:connector-curvature="0" />
      <path
         d="m 401.28903,452.03421 c -9e-5,7.41709 -0.99398,13.92925 -2.98166,19.53651 -1.98785,5.60731 -4.836,10.28005 -8.54444,14.01823 -3.7086,3.7382 -8.233,6.55667 -13.5732,8.45544 -5.34034,1.89876 -11.33331,2.84814 -17.97893,2.84814 -7.47643,0 -13.88476,-0.94938 -19.225,-2.84814 -5.3403,-1.89877 -9.67186,-4.62824 -12.99467,-8.18843 -3.32286,-3.56017 -5.72598,-7.89172 -7.20938,-12.99467 -1.48342,-5.10291 -2.22512,-10.82886 -2.22511,-17.17789 l 0,-77.167 21.89513,0 0,75.83193 c -3e-5,3.91624 0.34116,7.38742 1.02355,10.41354 0.68234,3.02618 1.86907,5.59248 3.56019,7.6989 1.69105,2.10646 3.81233,3.69371 6.36383,4.76175 2.55142,1.06807 5.75558,1.60209 9.6125,1.60208 3.61946,1e-5 6.67529,-0.45984 9.16747,-1.37957 2.49207,-0.9197 4.56884,-2.40311 6.23033,-4.45023 1.66135,-2.04709 2.90741,-4.67272 3.73819,-7.87691 0.83064,-3.20414 1.24599,-7.09067 1.24606,-11.65961 l 0,-74.94188 21.89514,0 z"
         style="font-size:182.28144836px;stroke-width:2.39844012"
         id="path3063"
         inkscape:connector-curvature="0" />
      <path
         d="m 422.56114,396.40633 0,-17.88993 73.51781,0 0,17.88993 -25.63332,0 0,80.37116 25.63332,0 0,18.06794 -73.51781,0 0,-18.06794 25.63333,0 0,-80.37116 z"
         style="font-size:182.28144836px;stroke-width:2.39844012"
         id="path3065"
         inkscape:connector-curvature="0" />
      <path
         d="m 575.47108,494.84543 -31.15161,-69.4236 -6.40833,-14.95278 0,48.24051 0,36.13587 -19.93704,0 0,-116.32903 26.8794,0 31.77464,69.86862 5.60729,13.61771 0,-51.35567 0,-32.13066 19.93704,0 0,116.32903 z"
         style="font-size:182.28144836px;stroke-width:2.39844012"
         id="path3067"
         inkscape:connector-curvature="0" />
      <path
         d="m 706.93085,436.19139 c -10e-5,10.56193 -1.23133,19.67006 -3.69369,27.32441 -2.46255,7.65442 -5.84473,13.94408 -10.14653,18.86898 -4.30197,4.92493 -9.34556,8.57412 -15.13078,10.94757 -5.78537,2.37346 -11.97118,3.56018 -18.55746,3.56018 -15.30883,0 -26.82008,-5.08809 -34.53379,-15.26429 -7.71375,-10.17617 -11.57061,-24.96575 -11.5706,-44.3688 -10e-6,-10.56181 1.23122,-19.66994 3.69369,-27.32441 2.46245,-7.65431 5.84462,-13.94396 10.14652,-18.86898 4.30187,-4.92481 9.34546,-8.574 15.13079,-10.94757 5.78526,-2.37334 11.97107,-3.56006 18.55746,-3.56018 15.30873,1.2e-4 26.81998,5.07337 34.53379,15.21979 7.71364,10.14661 11.5705,24.95103 11.5706,44.4133 z m -23.1412,1.06805 c -7e-5,-13.76597 -1.8395,-24.03116 -5.51829,-30.79559 -3.67892,-6.76426 -9.73123,-10.14643 -18.15694,-10.14653 -4.21293,1e-4 -7.80278,0.87531 -10.76956,2.62564 -2.96685,1.75052 -5.41448,4.31681 -7.34288,7.6989 -1.92846,3.38226 -3.3377,7.55064 -4.22772,12.50514 -0.89007,4.95467 -1.33509,10.63612 -1.33507,17.04439 -2e-5,13.76609 1.85424,24.03128 5.56279,30.79559 3.70849,6.76438 9.74597,10.14655 18.11244,10.14653 4.21283,2e-5 7.81752,-0.87519 10.81406,-2.62564 2.99643,-1.7504 5.44405,-4.31669 7.34288,-7.69889 1.8987,-3.38215 3.2931,-7.55053 4.18322,-12.50515 0.88997,-4.95455 1.335,-10.636 1.33507,-17.04439 z"
         style="font-size:182.28144836px;stroke-width:2.39844012"
         id="path3069"
         inkscape:connector-curvature="0" />
    </g>
  </g>
</svg>
