<?xml version="1.0" encoding="UTF-8" standalone="no"?>
<svg
   xmlns:dc="http://purl.org/dc/elements/1.1/"
   xmlns:cc="http://creativecommons.org/ns#"
   xmlns:rdf="http://www.w3.org/1999/02/22-rdf-syntax-ns#"
   xmlns:svg="http://www.w3.org/2000/svg"
   xmlns="http://www.w3.org/2000/svg"
   xmlns:sodipodi="http://sodipodi.sourceforge.net/DTD/sodipodi-0.dtd"
   xmlns:inkscape="http://www.inkscape.org/namespaces/inkscape"
   width="2500"
   height="2500"
   viewBox="0 0 192.756 192.756"
   version="1.1"
   id="svg8"
   sodipodi:docname="ariba.svg"
   inkscape:version="0.92.4 (5da689c313, 2019-01-14)">
  <metadata
     id="metadata14">
    <rdf:RDF>
      <cc:Work
         rdf:about="">
        <dc:format>image/svg+xml</dc:format>
        <dc:type
           rdf:resource="http://purl.org/dc/dcmitype/StillImage" />
      </cc:Work>
    </rdf:RDF>
  </metadata>
  <defs
     id="defs12" />
  <sodipodi:namedview
     pagecolor="#ffffff"
     bordercolor="#666666"
     borderopacity="1"
     objecttolerance="10"
     gridtolerance="10"
     guidetolerance="10"
     inkscape:pageopacity="0"
     inkscape:pageshadow="2"
     inkscape:window-width="2560"
     inkscape:window-height="1355"
     id="namedview10"
     showgrid="false"
     inkscape:zoom="0.0944"
     inkscape:cx="1250"
     inkscape:cy="1250"
     inkscape:window-x="0"
     inkscape:window-y="48"
     inkscape:window-maximized="1"
     inkscape:current-layer="svg8" />
  <g
     id="g6"
     transform="translate(-3.0508474e-7,-2.4502882)"
     style="clip-rule:evenodd;fill-rule:evenodd">
    <path
       d="M 0,0 H 192.756 V 192.756 H 0 Z"
       id="path2"
       inkscape:connector-curvature="0"
       style="fill:#ffffff" />
    <path
       d="M 165.801,109.32 C 135.207,77.551 104.026,45.194 94.025,45.194 c -9.413,0 -40.594,32.358 -71.188,64.126 h -0.588 c 0,0.59 0.588,0.59 0.588,0.59 h 0.589 c 4.706,-2.941 26.475,-19.416 35.299,-19.416 2.942,0 7.648,1.766 12.943,4.707 -7.06,7.06 -12.943,13.531 -13.531,14.119 0,0.59 0,0.59 0.588,0.59 2.942,-1.766 10.002,-7.061 17.65,-11.768 8.237,5.295 16.473,11.178 17.65,11.768 h 0.588 c 1.176,-0.59 9.412,-6.473 17.65,-11.768 7.646,4.707 14.707,10.002 17.648,11.768 0,0 0.588,0 0.588,-0.59 L 116.38,95.201 c 5.295,-2.941 10.59,-4.707 13.531,-4.707 8.826,0 30.594,16.474 35.299,19.416 h 0.59 c 0,0 0.588,0 0.588,-0.59 z M 94.025,55.784 c 4.118,0 10.59,2.942 16.473,6.472 -4.119,1.177 -10.002,5.883 -16.473,11.767 C 88.141,68.139 81.67,63.433 78.14,62.256 84.023,58.726 90.495,55.784 94.025,55.784 Z M 76.375,91.083 C 70.492,85.788 64.02,81.081 59.902,79.905 c 6.472,-4.118 12.355,-7.06 16.473,-7.06 2.942,0 8.237,2.354 13.532,5.295 -5.295,4.707 -12.944,12.943 -13.532,12.943 z m 17.65,17.649 c -1.177,-1.176 -6.472,-7.059 -12.943,-13.531 5.295,-2.941 10.001,-4.707 12.943,-4.707 3.53,0 8.237,1.766 13.532,4.707 -6.473,6.473 -11.767,12.356 -13.532,13.531 z m 18.239,-17.649 c -0.59,0 -8.238,-8.237 -13.533,-12.943 5.295,-2.941 10.59,-5.295 13.533,-5.295 3.529,0 10,2.942 16.473,7.06 -4.12,1.177 -10.591,5.884 -16.473,11.178 z M 22.25,141.68 H 9.306 l 6.472,-10.59 z m -19.416,5.882 h 2.942 l 2.353,-4.119 h 15.297 l 2.353,4.119 h 2.353 L 17.543,128.736 h -3.53 z m 48.832,-9.414 v -7.059 h 11.767 c 3.529,0 4.118,0.588 4.118,2.354 v 1.764 c 0,2.354 -1.177,2.941 -3.53,2.941 z m -2.354,9.414 h 2.354 v -7.648 H 64.02 c 2.354,0 3.53,0.588 3.53,3.529 v 4.119 h 2.354 v -4.707 c 0,-1.766 -0.589,-2.941 -2.942,-3.529 1.766,-0.588 3.53,-1.178 3.53,-3.529 v -1.766 c 0,-3.531 -1.177,-5.295 -6.472,-5.295 H 49.312 Z m 45.89,0 v -18.826 h -2.354 v 18.826 z m 42.359,-4.707 c 0,1.766 -0.588,2.354 -2.941,2.354 h -13.531 v -6.471 h 12.943 c 2.354,0 3.529,0.588 3.529,2.941 z m -0.588,-8.236 c 0,1.766 -1.766,2.354 -2.941,2.354 h -12.943 v -5.883 h 12.943 c 1.176,0 2.941,0 2.941,1.764 z m -18.239,12.943 h 15.885 c 2.941,0 5.295,-1.178 5.295,-4.119 v -2.354 c 0,-2.352 -1.766,-3.529 -3.529,-3.529 2.354,0 2.941,-1.764 2.941,-2.941 v -1.766 c 0,-1.764 -1.178,-4.117 -4.707,-4.117 h -15.885 z m 60.598,-5.882 h -12.355 l 6.473,-10.59 z m -18.826,5.882 h 2.941 l 2.354,-4.119 h 14.707 l 2.354,4.119 h 2.941 l -11.178,-18.826 h -2.941 z m 24.121,-16.472 c 0,-1.178 1.176,-2.354 2.354,-2.354 1.764,0 2.354,1.176 2.354,2.354 0,1.764 -0.59,2.941 -2.354,2.941 -1.178,0 -2.354,-1.177 -2.354,-2.941 z m -0.59,0 c 0,1.764 1.178,3.529 2.943,3.529 1.764,0 2.941,-1.766 2.941,-3.529 0,-1.178 -1.178,-2.943 -2.941,-2.943 -1.765,-0.001 -2.943,1.765 -2.943,2.943 z m 1.766,1.764 h 0.588 v -1.176 h 0.59 l 1.176,1.176 h 0.588 l -1.176,-1.176 c 0.588,0 1.176,-0.588 1.176,-1.178 0,-0.588 -0.588,-1.176 -1.764,-1.176 h -1.178 z m 0.588,-1.764 v -1.178 h 0.59 c 0.588,0 1.176,0 1.176,0.588 0,0.59 -0.588,0.59 -1.176,0.59 z"
       id="path4"
       inkscape:connector-curvature="0"
       style="fill:#272727" />
  </g>
</svg>
