<?xml version="1.0" encoding="UTF-8" standalone="no"?>
<!-- Generator: Adobe Illustrator 18.1.1, SVG Export Plug-In . SVG Version: 6.00 Build 0)  -->

<svg
   xmlns:dc="http://purl.org/dc/elements/1.1/"
   xmlns:cc="http://creativecommons.org/ns#"
   xmlns:rdf="http://www.w3.org/1999/02/22-rdf-syntax-ns#"
   xmlns:svg="http://www.w3.org/2000/svg"
   xmlns="http://www.w3.org/2000/svg"
   xmlns:sodipodi="http://sodipodi.sourceforge.net/DTD/sodipodi-0.dtd"
   xmlns:inkscape="http://www.inkscape.org/namespaces/inkscape"
   version="1.1"
   id="Capa_1"
   x="0px"
   y="0px"
   viewBox="0 0 474.026 560.026"
   xml:space="preserve"
   inkscape:version="0.91 r13725"
   sodipodi:docname="computer.svg"
   width="474.026"
   height="560.026"><metadata
     id="metadata91"><rdf:RDF><cc:Work
         rdf:about=""><dc:format>image/svg+xml</dc:format><dc:type
           rdf:resource="http://purl.org/dc/dcmitype/StillImage" /><dc:title></dc:title></cc:Work></rdf:RDF></metadata><defs
     id="defs89" /><sodipodi:namedview
     pagecolor="#ffffff"
     bordercolor="#666666"
     borderopacity="1"
     objecttolerance="10"
     gridtolerance="10"
     guidetolerance="10"
     inkscape:pageopacity="0"
     inkscape:pageshadow="2"
     inkscape:window-width="1920"
     inkscape:window-height="1016"
     id="namedview87"
     showgrid="false"
     inkscape:zoom="0.49786299"
     inkscape:cx="237.013"
     inkscape:cy="237.013"
     inkscape:window-x="1920"
     inkscape:window-y="35"
     inkscape:window-maximized="1"
     inkscape:current-layer="Capa_1" /><g
     id="g3"
     transform="translate(0,85.999998)"><g
       id="g5"><path
         style="fill:#010002"
         d="m 336.848,56.437 c 3.902,0 7.08,-3.162 7.08,-7.064 l 0,-42.293 c 0,-3.902 -3.178,-7.08 -7.08,-7.08 -3.894,0 -7.064,3.178 -7.064,7.08 l 0,42.293 c 0,3.902 3.179,7.064 7.064,7.064 z"
         id="path7"
         inkscape:connector-curvature="0" /><path
         style="fill:#010002"
         d="m 298.335,56.437 c 3.91,0 7.088,-3.162 7.088,-7.064 l 0,-42.293 c 0,-3.902 -3.178,-7.08 -7.088,-7.08 -3.885,0 -7.056,3.178 -7.056,7.08 l 0,42.293 c 0,3.902 3.171,7.064 7.056,7.064 z"
         id="path9"
         inkscape:connector-curvature="0" /><path
         style="fill:#010002"
         d="m 259.115,56.437 c 3.894,0 7.047,-3.162 7.047,-7.064 l 0,-42.293 C 266.162,3.178 263,0 259.115,0 c -3.902,0 -7.08,3.178 -7.08,7.08 l 0,42.293 c 0,3.902 3.17,7.064 7.08,7.064 z"
         id="path11"
         inkscape:connector-curvature="0" /><path
         style="fill:#010002"
         d="m 220.593,56.437 c 3.894,0 7.064,-3.162 7.064,-7.064 l 0,-42.293 c 0,-3.902 -3.178,-7.08 -7.064,-7.08 -3.902,0 -7.072,3.178 -7.072,7.08 l 0,42.293 c 0,3.902 3.171,7.064 7.072,7.064 z"
         id="path13"
         inkscape:connector-curvature="0" /><path
         style="fill:#010002"
         d="m 185.063,56.437 c 3.877,0 7.056,-3.162 7.056,-7.064 l 0,-42.293 c 0,-3.902 -3.178,-7.08 -7.056,-7.08 -3.918,0 -7.08,3.178 -7.08,7.08 l 0,42.293 c 0,3.902 3.162,7.064 7.08,7.064 z"
         id="path15"
         inkscape:connector-curvature="0" /><path
         style="fill:#010002"
         d="m 146.542,56.437 c 3.894,0 7.056,-3.162 7.056,-7.064 l 0,-42.293 C 153.598,3.178 150.436,0 146.542,0 142.64,0 139.47,3.17 139.47,7.08 l 0,42.293 c 0,3.902 3.17,7.064 7.072,7.064 z"
         id="path17"
         inkscape:connector-curvature="0" /><path
         style="fill:#010002"
         d="m 49.34,129.399 -42.276,0 c -3.902,0 -7.064,3.178 -7.064,7.064 0,3.886 3.162,7.064 7.064,7.064 l 42.276,0 c 3.918,0 7.08,-3.178 7.08,-7.064 0,-3.886 -3.162,-7.064 -7.08,-7.064 z"
         id="path19"
         inkscape:connector-curvature="0" /><path
         style="fill:#010002"
         d="m 49.34,167.92 -42.276,0 c -3.902,0 -7.064,3.162 -7.064,7.056 0,3.902 3.162,7.064 7.064,7.064 l 42.276,0 c 3.918,0 7.08,-3.162 7.08,-7.064 0,-3.902 -3.162,-7.056 -7.08,-7.056 z"
         id="path21"
         inkscape:connector-curvature="0" /><path
         style="fill:#010002"
         d="m 49.34,207.165 -42.276,0 c -3.902,0 -7.064,3.162 -7.064,7.08 0,3.894 3.162,7.056 7.064,7.056 l 42.276,0 c 3.918,0 7.08,-3.162 7.08,-7.056 0,-3.918 -3.162,-7.08 -7.08,-7.08 z"
         id="path23"
         inkscape:connector-curvature="0" /><path
         style="fill:#010002"
         d="m 49.34,245.662 -42.276,0 c -3.902,0 -7.064,3.178 -7.064,7.064 0,3.885 3.162,7.064 7.064,7.064 l 42.276,0 c 3.918,0 7.08,-3.178 7.08,-7.064 0,-3.886 -3.162,-7.064 -7.08,-7.064 z"
         id="path25"
         inkscape:connector-curvature="0" /><path
         style="fill:#010002"
         d="m 49.34,281.184 -42.276,0 c -3.902,0 -7.064,3.178 -7.064,7.064 0,3.918 3.162,7.096 7.064,7.096 l 42.276,0 c 3.918,0 7.08,-3.178 7.08,-7.096 0,-3.894 -3.162,-7.064 -7.08,-7.064 z"
         id="path27"
         inkscape:connector-curvature="0" /><path
         style="fill:#010002"
         d="m 49.34,319.713 -42.276,0 c -3.902,0 -7.064,3.154 -7.064,7.064 0,3.894 3.162,7.072 7.064,7.072 l 42.276,0 c 3.918,0 7.08,-3.178 7.08,-7.072 0,-3.91 -3.162,-7.064 -7.08,-7.064 z"
         id="path29"
         inkscape:connector-curvature="0" /><path
         style="fill:#010002"
         d="m 336.848,417.606 c -3.894,0 -7.064,3.178 -7.064,7.064 l 0,42.293 c 0,3.91 3.178,7.064 7.064,7.064 3.902,0 7.08,-3.154 7.08,-7.064 l 0,-42.293 c 0,-3.894 -3.17,-7.064 -7.08,-7.064 z"
         id="path31"
         inkscape:connector-curvature="0" /><path
         style="fill:#010002"
         d="m 298.335,417.606 c -3.885,0 -7.056,3.178 -7.056,7.064 l 0,42.293 c 0,3.91 3.178,7.064 7.056,7.064 3.91,0 7.088,-3.154 7.088,-7.064 l 0,-42.293 c 0,-3.894 -3.178,-7.064 -7.088,-7.064 z"
         id="path33"
         inkscape:connector-curvature="0" /><path
         style="fill:#010002"
         d="m 259.115,417.606 c -3.902,0 -7.08,3.178 -7.08,7.064 l 0,42.293 c 0,3.91 3.178,7.064 7.08,7.064 3.894,0 7.047,-3.154 7.047,-7.064 l 0,-42.293 c 0,-3.894 -3.162,-7.064 -7.047,-7.064 z"
         id="path35"
         inkscape:connector-curvature="0" /><path
         style="fill:#010002"
         d="m 220.593,417.606 c -3.902,0 -7.072,3.178 -7.072,7.064 l 0,42.293 c 0,3.91 3.162,7.064 7.072,7.064 3.894,0 7.064,-3.154 7.064,-7.064 l 0,-42.293 c 0,-3.894 -3.178,-7.064 -7.064,-7.064 z"
         id="path37"
         inkscape:connector-curvature="0" /><path
         style="fill:#010002"
         d="m 185.063,417.606 c -3.918,0 -7.08,3.178 -7.08,7.064 l 0,42.293 c 0,3.91 3.162,7.064 7.08,7.064 3.877,0 7.056,-3.154 7.056,-7.064 l 0,-42.293 c 0,-3.894 -3.178,-7.064 -7.056,-7.064 z"
         id="path39"
         inkscape:connector-curvature="0" /><path
         style="fill:#010002"
         d="m 146.542,417.606 c -3.902,0 -7.08,3.178 -7.08,7.064 l 0,42.293 c 0,3.91 3.178,7.064 7.08,7.064 3.894,0 7.056,-3.154 7.056,-7.064 l 0,-42.293 c 0,-3.894 -3.162,-7.064 -7.056,-7.064 z"
         id="path41"
         inkscape:connector-curvature="0" /><path
         style="fill:#010002"
         d="m 356.495,74.945 -229.616,0 c -24.093,0 -43.715,19.639 -43.715,43.732 l 0,229.6 c 0,24.134 19.622,43.772 43.715,43.772 l 229.616,0 c 24.101,0 43.74,-19.639 43.74,-43.772 l 0,-229.6 c 0,-24.093 -19.639,-43.732 -43.74,-43.732 z m -207.409,69.776 c -7.706,0 -13.949,-6.243 -13.949,-13.932 0,-7.69 6.243,-13.949 13.949,-13.949 7.673,0 13.932,6.259 13.932,13.949 0.001,7.689 -6.258,13.932 -13.932,13.932 z m 166.473,158.06 -146.176,0 0,-147.541 146.176,0 c 0,0 0,147.541 0,147.541 z"
         id="path43"
         inkscape:connector-curvature="0" /><path
         style="fill:#010002"
         d="m 424.645,143.526 42.301,0 c 3.902,0 7.08,-3.178 7.08,-7.064 0,-3.886 -3.178,-7.064 -7.08,-7.064 l -42.301,0 c -3.894,0 -7.064,3.178 -7.064,7.064 0,3.886 3.17,7.064 7.064,7.064 z"
         id="path45"
         inkscape:connector-curvature="0" /><path
         style="fill:#010002"
         d="m 466.946,167.92 -42.301,0 c -3.894,0 -7.064,3.162 -7.064,7.056 0,3.902 3.178,7.064 7.064,7.064 l 42.301,0 c 3.902,0 7.08,-3.162 7.08,-7.064 0,-3.902 -3.17,-7.056 -7.08,-7.056 z"
         id="path47"
         inkscape:connector-curvature="0" /><path
         style="fill:#010002"
         d="m 466.946,207.165 -42.301,0 c -3.894,0 -7.064,3.162 -7.064,7.08 0,3.894 3.178,7.056 7.064,7.056 l 42.301,0 c 3.902,0 7.08,-3.162 7.08,-7.056 0,-3.918 -3.17,-7.08 -7.08,-7.08 z"
         id="path49"
         inkscape:connector-curvature="0" /><path
         style="fill:#010002"
         d="m 466.946,245.662 -42.301,0 c -3.894,0 -7.064,3.178 -7.064,7.064 0,3.885 3.178,7.064 7.064,7.064 l 42.301,0 c 3.902,0 7.08,-3.178 7.08,-7.064 0,-3.886 -3.17,-7.064 -7.08,-7.064 z"
         id="path51"
         inkscape:connector-curvature="0" /><path
         style="fill:#010002"
         d="m 466.946,281.184 -42.301,0 c -3.894,0 -7.064,3.178 -7.064,7.064 0,3.918 3.178,7.096 7.064,7.096 l 42.301,0 c 3.902,0 7.08,-3.178 7.08,-7.096 0,-3.894 -3.17,-7.064 -7.08,-7.064 z"
         id="path53"
         inkscape:connector-curvature="0" /><path
         style="fill:#010002"
         d="m 466.946,319.713 -42.301,0 c -3.894,0 -7.064,3.154 -7.064,7.064 0,3.894 3.178,7.072 7.064,7.072 l 42.301,0 c 3.902,0 7.08,-3.178 7.08,-7.072 0,-3.91 -3.17,-7.064 -7.08,-7.064 z"
         id="path55"
         inkscape:connector-curvature="0" /></g></g><g
     id="g57"
     transform="translate(0,85.999998)" /><g
     id="g59"
     transform="translate(0,85.999998)" /><g
     id="g61"
     transform="translate(0,85.999998)" /><g
     id="g63"
     transform="translate(0,85.999998)" /><g
     id="g65"
     transform="translate(0,85.999998)" /><g
     id="g67"
     transform="translate(0,85.999998)" /><g
     id="g69"
     transform="translate(0,85.999998)" /><g
     id="g71"
     transform="translate(0,85.999998)" /><g
     id="g73"
     transform="translate(0,85.999998)" /><g
     id="g75"
     transform="translate(0,85.999998)" /><g
     id="g77"
     transform="translate(0,85.999998)" /><g
     id="g79"
     transform="translate(0,85.999998)" /><g
     id="g81"
     transform="translate(0,85.999998)" /><g
     id="g83"
     transform="translate(0,85.999998)" /><g
     id="g85"
     transform="translate(0,85.999998)" /></svg>