<?xml version="1.0" encoding="UTF-8" standalone="no"?>
<!-- Generator: Adobe Illustrator 19.0.0, SVG Export Plug-In . SVG Version: 6.00 Build 0)  -->

<svg
   xmlns:dc="http://purl.org/dc/elements/1.1/"
   xmlns:cc="http://creativecommons.org/ns#"
   xmlns:rdf="http://www.w3.org/1999/02/22-rdf-syntax-ns#"
   xmlns:svg="http://www.w3.org/2000/svg"
   xmlns="http://www.w3.org/2000/svg"
   xmlns:sodipodi="http://sodipodi.sourceforge.net/DTD/sodipodi-0.dtd"
   xmlns:inkscape="http://www.inkscape.org/namespaces/inkscape"
   version="1.1"
   id="Capa_1"
   x="0px"
   y="0px"
   viewBox="0 0 512 512"
   style="enable-background:new 0 0 512 512;"
   xml:space="preserve"
   sodipodi:docname="docker3.svg"
   inkscape:version="0.92.4 (5da689c313, 2019-01-14)"><metadata
   id="metadata61"><rdf:RDF><cc:Work
       rdf:about=""><dc:format>image/svg+xml</dc:format><dc:type
         rdf:resource="http://purl.org/dc/dcmitype/StillImage" /><dc:title></dc:title></cc:Work></rdf:RDF></metadata><defs
   id="defs59"><clipPath
     clipPathUnits="userSpaceOnUse"
     id="clipPath63"><g
       id="g85"
       transform="translate(-23.864407,-3.2016949e-6)">
	<path
   style="fill:#f2f2f2"
   d="m 511.958,251.643 c -21.859,26.624 -64.69,24.545 -64.69,24.545 -26.415,113.8 -185.94,171.719 -296.699,143.266 C 39.821,391.011 55.056,258.915 55.056,258.915 h 324.138 c 26.749,0 28.787,-8.129 28.787,-8.129 -23.709,-56.226 12.873,-86.371 12.873,-86.371 28.453,5.089 35.558,53.854 35.558,53.854 23.353,-4.19 42.109,0.794 53.582,5.59 1.149,9.122 1.818,18.39 1.964,27.784 z"
   id="path65"
   inkscape:connector-curvature="0" />
	<rect
   x="89.599998"
   y="207.433"
   style="fill:#f2f2f2"
   width="45.389999"
   height="41.32"
   id="rect67" />
	<rect
   x="146.64101"
   y="207.433"
   style="fill:#f2f2f2"
   width="45.389999"
   height="41.32"
   id="rect69" />
	<rect
   x="317.74301"
   y="207.433"
   style="fill:#f2f2f2"
   width="45.389999"
   height="41.32"
   id="rect71" />
	<rect
   x="260.71201"
   y="207.433"
   style="fill:#f2f2f2"
   width="45.389999"
   height="41.32"
   id="rect73" />
	<rect
   x="260.71201"
   y="101.763"
   style="fill:#f2f2f2"
   width="45.389999"
   height="41.32"
   id="rect75" />
	<rect
   x="203.67101"
   y="207.433"
   style="fill:#f2f2f2"
   width="45.389999"
   height="41.32"
   id="rect77" />
	<rect
   x="146.64101"
   y="154.593"
   style="fill:#f2f2f2"
   width="45.389999"
   height="41.32"
   id="rect79" />
	<rect
   x="260.71201"
   y="154.593"
   style="fill:#f2f2f2"
   width="45.389999"
   height="41.32"
   id="rect81" />
	<rect
   x="203.67101"
   y="154.593"
   style="fill:#f2f2f2"
   width="45.389999"
   height="41.32"
   id="rect83" />
</g></clipPath></defs><sodipodi:namedview
   pagecolor="#ffffff"
   bordercolor="#666666"
   borderopacity="1"
   objecttolerance="10"
   gridtolerance="10"
   guidetolerance="10"
   inkscape:pageopacity="0"
   inkscape:pageshadow="2"
   inkscape:window-width="2560"
   inkscape:window-height="1355"
   id="namedview57"
   showgrid="false"
   inkscape:zoom="0.4609375"
   inkscape:cx="-168.13559"
   inkscape:cy="256"
   inkscape:window-x="0"
   inkscape:window-y="48"
   inkscape:window-maximized="1"
   inkscape:current-layer="Capa_1" />
<path
   style="fill:#000000"
   d="M512,256c0,141.385-114.615,256-256,256S0,397.385,0,256S114.615,0,256,0  c130.497,0,238.184,97.646,253.994,223.859c1.149,9.122,1.818,18.39,1.964,27.784C511.99,253.095,512,254.548,512,256z"
   id="path2"
   clip-path="url(#clipPath63)" />

<g
   id="g26">
</g>
<g
   id="g28">
</g>
<g
   id="g30">
</g>
<g
   id="g32">
</g>
<g
   id="g34">
</g>
<g
   id="g36">
</g>
<g
   id="g38">
</g>
<g
   id="g40">
</g>
<g
   id="g42">
</g>
<g
   id="g44">
</g>
<g
   id="g46">
</g>
<g
   id="g48">
</g>
<g
   id="g50">
</g>
<g
   id="g52">
</g>
<g
   id="g54">
</g>
</svg>