<?xml version="1.0" encoding="UTF-8" standalone="no"?>
<!-- Generator: Adobe Illustrator 19.0.0, SVG Export Plug-In . SVG Version: 6.00 Build 0)  -->

<svg
   xmlns:dc="http://purl.org/dc/elements/1.1/"
   xmlns:cc="http://creativecommons.org/ns#"
   xmlns:rdf="http://www.w3.org/1999/02/22-rdf-syntax-ns#"
   xmlns:svg="http://www.w3.org/2000/svg"
   xmlns="http://www.w3.org/2000/svg"
   xmlns:sodipodi="http://sodipodi.sourceforge.net/DTD/sodipodi-0.dtd"
   xmlns:inkscape="http://www.inkscape.org/namespaces/inkscape"
   version="1.1"
   id="Capa_1"
   x="0px"
   y="0px"
   viewBox="0 0 512 512"
   style="enable-background:new 0 0 512 512;"
   xml:space="preserve"
   sodipodi:docname="docker4.svg"
   inkscape:version="0.92.4 (5da689c313, 2019-01-14)"><metadata
   id="metadata61"><rdf:RDF><cc:Work
       rdf:about=""><dc:format>image/svg+xml</dc:format><dc:type
         rdf:resource="http://purl.org/dc/dcmitype/StillImage" /><dc:title></dc:title></cc:Work></rdf:RDF></metadata><defs
   id="defs59" /><sodipodi:namedview
   pagecolor="#ffffff"
   bordercolor="#666666"
   borderopacity="1"
   objecttolerance="10"
   gridtolerance="10"
   guidetolerance="10"
   inkscape:pageopacity="0"
   inkscape:pageshadow="2"
   inkscape:window-width="2560"
   inkscape:window-height="1355"
   id="namedview57"
   showgrid="false"
   inkscape:zoom="0.4609375"
   inkscape:cx="256"
   inkscape:cy="256"
   inkscape:window-x="0"
   inkscape:window-y="48"
   inkscape:window-maximized="1"
   inkscape:current-layer="Capa_1" />

<g
   id="g24"
   transform="translate(-19.525425,-4.3389882)"
   style="fill:#000000">
	<path
   style="fill:#000000"
   d="m 511.958,251.643 c -21.859,26.624 -64.69,24.545 -64.69,24.545 -26.415,113.8 -185.94,171.719 -296.699,143.266 C 39.821,391.011 55.056,258.915 55.056,258.915 h 324.138 c 26.749,0 28.787,-8.129 28.787,-8.129 -23.709,-56.226 12.873,-86.371 12.873,-86.371 28.453,5.089 35.558,53.854 35.558,53.854 23.353,-4.19 42.109,0.794 53.582,5.59 1.149,9.122 1.818,18.39 1.964,27.784 z"
   id="path4"
   inkscape:connector-curvature="0" />
	<rect
   x="89.599998"
   y="207.433"
   style="fill:#000000"
   width="45.389999"
   height="41.32"
   id="rect6" />
	<rect
   x="146.64101"
   y="207.433"
   style="fill:#000000"
   width="45.389999"
   height="41.32"
   id="rect8" />
	<rect
   x="317.74301"
   y="207.433"
   style="fill:#000000"
   width="45.389999"
   height="41.32"
   id="rect10" />
	<rect
   x="260.71201"
   y="207.433"
   style="fill:#000000"
   width="45.389999"
   height="41.32"
   id="rect12" />
	<rect
   x="260.71201"
   y="101.763"
   style="fill:#000000"
   width="45.389999"
   height="41.32"
   id="rect14" />
	<rect
   x="203.67101"
   y="207.433"
   style="fill:#000000"
   width="45.389999"
   height="41.32"
   id="rect16" />
	<rect
   x="146.64101"
   y="154.593"
   style="fill:#000000"
   width="45.389999"
   height="41.32"
   id="rect18" />
	<rect
   x="260.71201"
   y="154.593"
   style="fill:#000000"
   width="45.389999"
   height="41.32"
   id="rect20" />
	<rect
   x="203.67101"
   y="154.593"
   style="fill:#000000"
   width="45.389999"
   height="41.32"
   id="rect22" />
</g>
<g
   id="g26">
</g>
<g
   id="g28">
</g>
<g
   id="g30">
</g>
<g
   id="g32">
</g>
<g
   id="g34">
</g>
<g
   id="g36">
</g>
<g
   id="g38">
</g>
<g
   id="g40">
</g>
<g
   id="g42">
</g>
<g
   id="g44">
</g>
<g
   id="g46">
</g>
<g
   id="g48">
</g>
<g
   id="g50">
</g>
<g
   id="g52">
</g>
<g
   id="g54">
</g>
</svg>