<?xml version="1.0" encoding="windows-1252"?>
<!-- Generator: Adobe Illustrator 19.0.0, SVG Export Plug-In . SVG Version: 6.00 Build 0)  -->
<svg version="1.1" id="Capa_1" xmlns="http://www.w3.org/2000/svg" xmlns:xlink="http://www.w3.org/1999/xlink" x="0px" y="0px" viewBox="0 0 512 512" style="enable-background:new 0 0 512 512;" xml:space="preserve">
<g>
	<g>
		<path d="M447.872,106.005c-0.062-0.941-0.248-1.87-0.555-2.763c-0.117-0.341-0.203-0.661-0.352-0.992    c-0.519-1.161-1.242-2.219-2.133-3.125l-96-96c-0.906-0.892-1.965-1.614-3.125-2.133c-0.32-0.149-0.651-0.235-0.981-0.352    c-0.905-0.312-1.849-0.499-2.805-0.555C341.749,0.117,341.557,0,341.333,0H96C78.327,0,64,14.327,64,32v448    c0,17.673,14.327,32,32,32v-21.333c-5.891,0-10.667-4.776-10.667-10.667V32c0-5.891,4.776-10.667,10.667-10.667h234.667v64    c0,17.673,14.327,32,32,32h64V480c0,5.891-4.776,10.667-10.667,10.667V512c17.673,0,32-14.327,32-32V106.667    C448,106.443,447.883,106.24,447.872,106.005z M362.667,96C356.776,96,352,91.224,352,85.333V36.416L411.584,96H362.667z"/>
	</g>
</g>
<g>
	<g>
		<path d="M394.667,160H149.333c-23.564,0-42.667,19.103-42.667,42.667v266.667c0,23.564,19.102,42.667,42.667,42.667h245.333    c5.891,0,10.667-4.776,10.667-10.667V170.667C405.333,164.776,400.558,160,394.667,160z M128,202.667    c0-11.782,9.551-21.333,21.333-21.333v245.333c-7.512,0.044-14.876,2.091-21.333,5.931V202.667z M384,458.667H149.333V480H384    v10.667H149.333c-11.782,0-21.333-9.551-21.333-21.333c0-11.782,9.551-21.333,21.333-21.333H384V458.667z M384,426.667H170.667    V181.333H384V426.667z"/>
	</g>
</g>
<g>
	<g>
		<path d="M352,202.667H202.667c-5.891,0-10.667,4.776-10.667,10.667V256c0,5.891,4.776,10.667,10.667,10.667H352    c5.891,0,10.667-4.776,10.667-10.667v-42.667C362.667,207.442,357.891,202.667,352,202.667z M341.333,245.333h-128V224h128    V245.333z"/>
	</g>
</g>
<g>
	<g>
		<rect x="192" y="298.667" width="170.667" height="21.333"/>
	</g>
</g>
<g>
	<g>
		<rect x="192" y="341.333" width="170.667" height="21.333"/>
	</g>
</g>
<g>
	<g>
		<rect x="192" y="384" width="170.667" height="21.333"/>
	</g>
</g>
<g>
	<g>
		<rect x="128" y="64" width="21.333" height="21.333"/>
	</g>
</g>
<g>
	<g>
		<rect x="170.667" y="64" width="42.667" height="21.333"/>
	</g>
</g>
<g>
	<g>
		<rect x="128" y="106.667" width="85.333" height="21.333"/>
	</g>
</g>
<g>
</g>
<g>
</g>
<g>
</g>
<g>
</g>
<g>
</g>
<g>
</g>
<g>
</g>
<g>
</g>
<g>
</g>
<g>
</g>
<g>
</g>
<g>
</g>
<g>
</g>
<g>
</g>
<g>
</g>
</svg>