<?xml version="1.0" encoding="UTF-8" standalone="no"?>
<svg
   xmlns:dc="http://purl.org/dc/elements/1.1/"
   xmlns:cc="http://creativecommons.org/ns#"
   xmlns:rdf="http://www.w3.org/1999/02/22-rdf-syntax-ns#"
   xmlns:svg="http://www.w3.org/2000/svg"
   xmlns="http://www.w3.org/2000/svg"
   xmlns:sodipodi="http://sodipodi.sourceforge.net/DTD/sodipodi-0.dtd"
   xmlns:inkscape="http://www.inkscape.org/namespaces/inkscape"
   width="256px"
   height="309px"
   viewBox="0 0 256 309"
   version="1.1"
   preserveAspectRatio="xMidYMid"
   id="svg2"
   inkscape:version="0.91 r13725"
   sodipodi:docname="qt-seeklogo.com2.svg">
  <metadata
     id="metadata32">
    <rdf:RDF>
      <cc:Work
         rdf:about="">
        <dc:format>image/svg+xml</dc:format>
        <dc:type
           rdf:resource="http://purl.org/dc/dcmitype/StillImage" />
      </cc:Work>
    </rdf:RDF>
  </metadata>
  <defs
     id="defs30" />
  <sodipodi:namedview
     pagecolor="#ffffff"
     bordercolor="#666666"
     borderopacity="1"
     objecttolerance="10"
     gridtolerance="10"
     guidetolerance="10"
     inkscape:pageopacity="0"
     inkscape:pageshadow="2"
     inkscape:window-width="1920"
     inkscape:window-height="1016"
     id="namedview28"
     showgrid="false"
     inkscape:zoom="3.0550162"
     inkscape:cx="172.39791"
     inkscape:cy="199.27561"
     inkscape:window-x="1920"
     inkscape:window-y="35"
     inkscape:window-maximized="1"
     inkscape:current-layer="g4" />
  <g
     id="g4">
    <path
       d="M 56.931641 0.70117188 C 36.921549 0.68418057 20.835937 16.612891 20.835938 38.861328 L 20.835938 308.72266 L 230.2168 273.54297 C 244.6208 271.03297 256 254.04345 256 235.68945 L 256 32.826172 L 63.255859 1.2285156 C 61.115359 0.8747969 59.00165 0.7029296 56.931641 0.70117188 z M 109.7168 56.320312 C 112.0948 56.320313 114.57719 56.467719 117.11719 56.761719 C 134.66319 58.787719 147.39378 67.069063 155.67578 81.414062 C 163.80978 95.452062 167.78906 115.58305 167.78906 141.99805 C 167.78906 166.21004 164.85192 185.24002 158.91992 199.29102 C 152.86992 213.54902 143.64911 222.8715 131.03711 227.1875 C 132.31411 233.7215 134.23897 238.12664 136.79297 240.43164 C 138.77597 242.22364 141.82978 243.10547 145.92578 243.10547 C 147.11578 243.10547 148.39252 243.03077 149.72852 242.88477 L 149.72852 262.14844 L 140.97656 263.30859 C 138.40756 263.63159 135.95477 263.80859 133.63477 263.80859 C 125.97077 263.80859 119.77547 261.94259 115.10547 258.18359 C 108.92447 253.23559 104.37317 243.66281 101.45117 229.50781 C 88.045172 226.64481 77.575891 218.1135 70.337891 203.8125 C 62.995891 189.2615 59.251953 167.98577 59.251953 140.17578 C 59.251953 110.17878 64.376219 88.036375 74.449219 73.984375 C 82.936219 62.149374 94.798792 56.320313 109.7168 56.320312 z M 190.17969 66.791016 L 207.0957 68.611328 L 207.0957 98.285156 L 226.125 99.636719 L 226.125 118.25391 L 207.0957 117.37305 L 207.0957 185.40039 C 207.0957 191.31739 207.7405 195.11989 209.0625 196.83789 C 210.2365 198.40889 212.05777 199.17383 214.50977 199.17383 C 214.74477 199.17383 214.99452 199.1732 215.22852 199.1582 C 218.97352 198.9382 223.05623 197.79358 227.49023 195.76758 L 227.49023 212.87305 C 219.94323 216.17705 212.54144 218.15839 205.27344 218.77539 C 204.23144 218.84839 203.2047 218.89258 202.2207 218.89258 C 195.6427 218.89258 190.62155 216.98405 187.18555 213.12305 C 183.17655 208.64505 181.17969 201.44903 181.17969 191.58203 L 181.17969 116.16992 L 172.0332 115.75781 L 172.0332 95.804688 L 183.17578 96.611328 L 190.17969 66.791016 z M 115.56055 79.005859 C 109.18755 79.005859 104.28428 82.736936 100.86328 90.210938 C 97.16328 98.344938 95.298828 115.22934 95.298828 140.77734 C 95.298828 165.45933 97.119063 182.99153 100.78906 193.26953 C 104.24006 203.06353 109.40803 207.92383 116.20703 207.92383 C 116.51503 207.92383 116.80919 207.90853 117.11719 207.89453 C 123.91519 207.45353 129.03953 202.7552 132.51953 193.7832 C 135.96953 184.9152 137.67383 167.48704 137.67383 141.49805 C 137.67383 118.16605 135.98545 102.11827 132.56445 93.322266 C 129.12845 84.468266 124.00319 79.682078 117.11719 79.080078 C 116.58819 79.036078 116.07455 79.005859 115.56055 79.005859 z "
       id="path8" />
  </g>
</svg>
