<?xml version="1.0" encoding="UTF-8" standalone="no"?>
<svg
   xmlns:dc="http://purl.org/dc/elements/1.1/"
   xmlns:cc="http://creativecommons.org/ns#"
   xmlns:rdf="http://www.w3.org/1999/02/22-rdf-syntax-ns#"
   xmlns:svg="http://www.w3.org/2000/svg"
   xmlns="http://www.w3.org/2000/svg"
   xmlns:sodipodi="http://sodipodi.sourceforge.net/DTD/sodipodi-0.dtd"
   xmlns:inkscape="http://www.inkscape.org/namespaces/inkscape"
   width="256"
   height="400"
   viewBox="0 0 256 400"
   version="1.1"
   preserveAspectRatio="xMidYMid"
   id="svg2"
   inkscape:version="0.91 r13725"
   sodipodi:docname="qt-seeklogo.com3.svg">
  <metadata
     id="metadata32">
    <rdf:RDF>
      <cc:Work
         rdf:about="">
        <dc:format>image/svg+xml</dc:format>
        <dc:type
           rdf:resource="http://purl.org/dc/dcmitype/StillImage" />
        <dc:title></dc:title>
      </cc:Work>
    </rdf:RDF>
  </metadata>
  <defs
     id="defs30" />
  <sodipodi:namedview
     pagecolor="#ffffff"
     bordercolor="#666666"
     borderopacity="1"
     objecttolerance="10"
     gridtolerance="10"
     guidetolerance="10"
     inkscape:pageopacity="0"
     inkscape:pageshadow="2"
     inkscape:window-width="1920"
     inkscape:window-height="1016"
     id="namedview28"
     showgrid="false"
     inkscape:zoom="1.5275081"
     inkscape:cx="53.167034"
     inkscape:cy="123.77953"
     inkscape:window-x="1920"
     inkscape:window-y="35"
     inkscape:window-maximized="1"
     inkscape:current-layer="g4" />
  <g
     id="g4"
     transform="translate(0,91)">
    <path
       d="M 48.931641,0.70117188 C 28.921549,0.68418057 12.835937,16.612891 12.835938,38.861328 l 0,269.861332 L 222.2168,273.54297 C 236.6208,271.03297 248,254.04345 248,235.68945 L 248,32.826172 55.255859,1.2285156 C 53.115359,0.8747969 51.00165,0.7029296 48.931641,0.70117188 Z M 101.7168,56.320312 c 2.378,10e-7 4.86039,0.147407 7.40039,0.441407 17.546,2.026 30.27659,10.307344 38.55859,24.652343 8.134,14.038 12.11328,34.168988 12.11328,60.583988 0,24.21199 -2.93714,43.24197 -8.86914,57.29297 -6.05,14.258 -15.27081,23.58048 -27.88281,27.89648 1.277,6.534 3.20186,10.93914 5.75586,13.24414 1.983,1.792 5.03681,2.67383 9.13281,2.67383 1.19,0 2.46674,-0.0747 3.80274,-0.2207 l 0,19.26367 -8.75196,1.16015 c -2.569,0.323 -5.02179,0.5 -7.34179,0.5 -7.664,0 -13.8593,-1.866 -18.5293,-5.625 -6.181,-4.948 -10.7323,-14.52078 -13.6543,-28.67578 -13.405998,-2.863 -23.875279,-11.39431 -31.113279,-25.69531 -7.342,-14.551 -11.085938,-35.82673 -11.085938,-63.63672 0,-29.997 5.124266,-52.139405 15.197266,-66.191405 8.487,-11.835001 20.349573,-17.664062 35.267581,-17.664063 z m 80.46289,10.470704 16.91601,1.820312 0,29.673828 19.0293,1.351563 0,18.617191 -19.0293,-0.88086 0,68.02734 c 0,5.917 0.6448,9.7195 1.9668,11.4375 1.174,1.571 2.99527,2.33594 5.44727,2.33594 0.235,0 0.48475,-6.3e-4 0.71875,-0.0156 3.745,-0.22 7.82771,-1.36462 12.26171,-3.39062 l 0,17.10547 c -7.547,3.304 -14.94879,5.28534 -22.21679,5.90234 -1.042,0.073 -2.06874,0.11719 -3.05274,0.11719 -6.578,0 -11.59915,-1.90853 -15.03515,-5.76953 -4.009,-4.478 -6.00586,-11.67402 -6.00586,-21.54102 l 0,-75.41211 -9.14649,-0.41211 0,-19.953122 11.14258,0.80664 7.00391,-29.820312 z m -74.61914,12.214843 c -6.373,0 -11.27627,3.731077 -14.69727,11.205079 -3.7,8.134 -5.564452,25.018402 -5.564452,50.566402 0,24.68199 1.820235,42.21419 5.490232,52.49219 3.451,9.794 8.61897,14.6543 15.41797,14.6543 0.308,0 0.60216,-0.0153 0.91016,-0.0293 6.798,-0.441 11.92234,-5.13933 15.40234,-14.11133 3.45,-8.868 5.1543,-26.29616 5.1543,-52.28515 0,-23.332 -1.68838,-39.37978 -5.10938,-48.175784 -3.436,-8.854 -8.56126,-13.640188 -15.44726,-14.242188 -0.529,-0.044 -1.04264,-0.07422 -1.55664,-0.07422 z"
       id="path8"
       inkscape:connector-curvature="0" />
  </g>
</svg>
