<?xml version="1.0" encoding="UTF-8" standalone="no"?>
<!-- Created with Inkscape (http://www.inkscape.org/) -->

<svg
   xmlns:dc="http://purl.org/dc/elements/1.1/"
   xmlns:cc="http://creativecommons.org/ns#"
   xmlns:rdf="http://www.w3.org/1999/02/22-rdf-syntax-ns#"
   xmlns:svg="http://www.w3.org/2000/svg"
   xmlns="http://www.w3.org/2000/svg"
   xmlns:sodipodi="http://sodipodi.sourceforge.net/DTD/sodipodi-0.dtd"
   xmlns:inkscape="http://www.inkscape.org/namespaces/inkscape"
   version="1.1"
   id="svg211"
   width="67.199997"
   height="64.32"
   viewBox="0 0 67.199997 64.32"
   sodipodi:docname="vuejs.svg"
   inkscape:version="0.92.4 (5da689c313, 2019-01-14)">
  <metadata
     id="metadata217">
    <rdf:RDF>
      <cc:Work
         rdf:about="">
        <dc:format>image/svg+xml</dc:format>
        <dc:type
           rdf:resource="http://purl.org/dc/dcmitype/StillImage" />
        <dc:title />
      </cc:Work>
    </rdf:RDF>
  </metadata>
  <defs
     id="defs215" />
  <sodipodi:namedview
     pagecolor="#ffffff"
     bordercolor="#666666"
     borderopacity="1"
     objecttolerance="10"
     gridtolerance="10"
     guidetolerance="10"
     inkscape:pageopacity="0"
     inkscape:pageshadow="2"
     inkscape:window-width="2560"
     inkscape:window-height="1355"
     id="namedview213"
     showgrid="false"
     inkscape:zoom="3.6691542"
     inkscape:cx="-22.134917"
     inkscape:cy="32.16"
     inkscape:window-x="0"
     inkscape:window-y="48"
     inkscape:window-maximized="1"
     inkscape:current-layer="svg211" />
  <g
     transform="matrix(0.30566586,0,0,0.31254238,1.3627189,1.9077978)"
     id="g15"
     style="fill:#000000">
    <path
       style="fill:#000000;fill-opacity:0"
       d="M 0,0.5 V 0 H 0.5 1 1.5 2 2.5 3 3.5 4 4.5 5 5.5 6 6.5 7 7.5 8 8.5 9 9.5 10 h 0.5 0.5 0.5 0.5 0.5 0.5 0.5 0.5 0.5 0.5 0.5 0.5 0.5 0.5 0.5 0.5 0.5 0.5 0.5 0.5 0.5 0.5 0.5 0.5 0.5 0.5 0.5 0.5 0.5 0.5 0.5 0.5 0.5 0.5 0.5 0.5 0.5 0.5 0.5 0.5 0.5 0.5 0.5 0.5 0.5 0.5 0.5 0.5 0.5 0.5 0.5 0.5 0.5 0.5 0.5 0.5 0.5 0.5 0.5 0.5 0.5 0.5 0.5 0.5 0.5 0.5 0.5 0.5 0.5 0.5 0.5 0.5 0.5 0.5 0.5 0.5 0.5 0.5 0.5 0.5 0.5 0.5 0.5 0.5 0.5 0.5 0.5 0.5 0.5 0.5 0.5 0.5 0.5 0.5 0.5 0.5 0.5 0.5 0.5 0.5 0.5 0.5 0.5 0.5 0.5 0.5 0.5 0.5 0.5 0.5 0.5 0.5 0.5 0.5 0.5 0.5 0.5 0.5 0.5 0.5 0.5 0.5 0.5 0.5 0.5 0.5 0.5 0.5 0.5 0.5 0.5 0.5 0.5 0.5 0.5 0.5 0.5 0.5 0.5 0.5 0.5 0.5 0.5 0.5 0.5 0.5 0.5 0.5 0.5 0.5 0.5 0.5 0.5 0.5 0.5 0.5 0.5 0.5 0.5 0.5 0.5 0.5 0.5 0.5 0.5 0.5 0.5 0.5 0.5 0.5 0.5 0.5 0.5 0.5 0.5 0.5 0.5 0.5 0.5 0.5 0.5 0.5 0.5 0.5 0.5 0.5 0.5 0.5 0.5 0.5 0.5 0.5 0.5 0.5 0.5 0.5 0.5 0.5 0.5 0.5 0.5 0.5 0.5 0.5 0.5 0.5 0.5 0.5 0.5 0.5 0.5 0.5 0.5 0.5 0.5 0.5 0.5 0.5 0.5 0.5 0.5 0.5 0.5 0.5 0.5 0.5 0.5 0.5 0.5 0.5 0.5 0.5 0.5 0.5 0.5 0.5 0.5 0.5 0.5 0.5 0.5 0.5 0.5 0.5 0.5 0.5 0.5 0.5 0.5 0.5 0.5 0.5 0.5 0.5 0.5 0.5 0.5 0.5 0.5 0.5 0.5 0.5 0.5 0.5 0.5 0.5 0.5 0.5 0.5 0.5 0.5 0.5 0.5 0.5 0.5 0.5 0.5 0.5 0.5 0.5 0.5 0.5 0.5 0.5 0.5 0.5 0.5 0.5 0.5 0.5 0.5 0.5 0.5 0.5 0.5 0.5 0.5 0.5 0.5 0.5 0.5 0.5 0.5 0.5 0.5 0.5 0.5 0.5 0.5 0.5 0.5 0.5 0.5 0.5 0.5 0.5 0.5 0.5 0.5 0.5 0.5 0.5 0.5 0.5 0.5 0.5 0.5 0.5 0.5 0.5 0.5 0.5 0.5 0.5 0.5 0.5 0.5 0.5 0.5 0.5 0.5 0.5 0.5 0.5 0.5 0.5 0.5 0.5 0.5 0.5 0.5 0.5 0.5 0.5 0.5 0.5 0.5 0.5 0.5 0.5 0.5 0.5 0.5 0.5 0.5 0.5 0.5 0.5 0.5 0.5 0.5 0.5 0.5 0.5 0.5 0.5 0.5 0.5 0.5 0.5 0.5 0.5 0.5 0.5 0.5 0.5 0.5 0.5 0.5 0.5 0.5 0.5 0.5 0.5 0.5 0.5 0.5 0.5 0.5 0.5 V 0.5 1 1.5 2 2.5 3 3.5 4 4.5 5 5.5 6 6.5 7 7.5 8 8.5 9 9.5 10 10.5 11 11.5 12 h -0.5 q -0.5,0 -1,0 -0.5,0 -1,0 -0.5,0 -1,0 -0.5,0 -1,0 -0.5,0 -1,0 -0.5,0 -1,0 -0.5,0 -1,0 -0.5,0 -1,0 -0.5,0 -1,0 -0.5,0 -1,0 -0.5,0 -1,0 -0.5,0 -1,0 -0.5,0 -1,0 -0.5,0 -1,0 -0.5,0 -1,0 -0.5,0 -1,0 -0.5,0 -1,0 -0.5,0 -1,0 -0.5,0 -1,0 -0.5,0 -1,0 -0.5,0 -1,0 -0.5,0 -1,0 -0.5,0 -1,0 -0.5,0 -1,0 -0.5,0 -1,0 -0.5,0 -1,0 -0.5,0 -1,0 -0.5,0 -1,0 -0.5,0 -1,0 -0.5,0 -1,0 -0.5,0 -1,0 -0.5,0 -1,0 -0.5,0 -1,0 -0.5,0 -1,0 -0.5,0 -1,0 -0.5,0 -1,0 -0.5,0 -1,0 -0.5,0 -1,0 -0.5,0 -1,0 -0.5,0 -1,0 -0.5,0 -1,0 -0.5,0 -1,0 -0.5,0 -1,0 -0.5,0 -1,0 -0.5,0 -1,0 -0.5,0 -1,0 -0.5,0 -1,0 -0.5,0 -1,0 -0.5,0 -1,0 -0.5,0 -1,0 -0.5,0 -1,0 -0.5,0 -1,0 -0.5,0 -1,0 -0.5,0 -1,0 -0.5,0 -1,0 -0.5,0 -1,0 -0.5,0 -1,0 -0.5,0 -1,0 -0.5,0 -1,0 -0.5,0 -1,0 -0.5,0 -1,0 -0.5,0 -1,0 -0.5,0 -1,0 -0.5,0 -1,0 -0.5,0 -1,0 -0.5,0 -1,0 -0.5,0 -1,0 -0.5,0 -1,0 -0.5,0 -1,0 -0.5,0 -1,0 -0.5,0 -1,0 -0.5,0 -1,0 -0.5,0 -1,0 -0.5,0 -1,0 -0.5,0 -1,0 -0.5,0 -1,0 -0.5,0 -1,0 -0.5,0 -1,0 -0.5,0 -0.5,0.5 0,0.5 -0.5,0.5 -0.5,0 -0.5,0.5 0,0.5 -0.5,0.5 -0.5,0 -0.5,0.5 0,0.5 0,1 0,0.5 -0.5,0.5 -0.5,0 -0.5,0.5 0,0.5 -0.5,0.5 -0.5,0 -0.5,0.5 0,0.5 0,1 0,0.5 -0.5,0.5 -0.5,0 -0.5,0.5 0,0.5 0,1 0,0.5 -0.5,0.5 -0.5,0 -0.5,0.5 0,0.5 -0.5,0.5 -0.5,0 -0.5,0.5 0,0.5 0,1 0,0.5 -0.5,0.5 -0.5,0 -0.5,0.5 0,0.5 -0.5,0.5 -0.5,0 -0.5,0.5 0,0.5 0,1 0,0.5 -0.5,0.5 -0.5,0 -0.5,0.5 0,0.5 0,1 0,0.5 -0.5,0.5 -0.5,0 -0.5,0.5 0,0.5 -0.5,0.5 -0.5,0 -0.5,0.5 0,0.5 0,1 0,0.5 -0.5,0.5 -0.5,0 -0.5,0.5 0,0.5 -0.5,0.5 -0.5,0 -0.5,0.5 0,0.5 0,1 0,0.5 -0.5,0.5 -0.5,0 -0.5,0.5 0,0.5 -0.5,0.5 -0.5,0 -0.5,0.5 0,0.5 0,1 0,0.5 -0.5,0.5 -0.5,0 -0.5,0.5 0,0.5 0,1 0,0.5 -0.5,0.5 -0.5,0 -0.5,0.5 0,0.5 -0.5,0.5 -0.5,0 -0.5,0.5 0,0.5 0,1 0,0.5 -0.5,0.5 -0.5,0 -0.5,0.5 0,0.5 -0.5,0.5 -0.5,0 -0.5,0.5 0,0.5 0,1 0,0.5 -0.5,0.5 -0.5,0 -0.5,0.5 0,0.5 0,1 0,0.5 -0.5,0.5 -0.5,0 -0.5,0.5 0,0.5 -0.5,0.5 -0.5,0 -0.5,0.5 0,0.5 0,1 0,0.5 -0.5,0.5 -0.5,0 -0.5,0.5 0,0.5 -0.5,0.5 -0.5,0 -1,0 -0.5,0 -0.5,-0.5 0,-0.5 0,-1 0,-0.5 -0.5,-0.5 -0.5,0 -0.5,-0.5 0,-0.5 0,-1 0,-0.5 -0.5,-0.5 -0.5,0 -0.5,-0.5 0,-0.5 0,-1 Q 102,46 101.5,46 101,46 101,45.5 101,45 100.5,45 100,45 100,44.5 100,44 100,43.5 100,43 99.5,43 99,43 99,42.5 99,42 99,41.5 99,41 98.5,41 98,41 98,40.5 98,40 98,39.5 98,39 97.5,39 97,39 97,38.5 97,38 97,37.5 97,37 96.5,37 96,37 96,36.5 96,36 96,35.5 96,35 95.5,35 95,35 95,34.5 95,34 94.5,34 94,34 94,33.5 94,33 94,32.5 94,32 93.5,32 93,32 93,31.5 93,31 93,30.5 93,30 92.5,30 92,30 92,29.5 92,29 92,28.5 92,28 91.5,28 91,28 91,27.5 91,27 91,26.5 91,26 90.5,26 90,26 90,25.5 90,25 90,24.5 90,24 89.5,24 89,24 89,23.5 89,23 89,22.5 89,22 88.5,22 88,22 88,21.5 88,21 87.5,21 87,21 87,20.5 87,20 87,19.5 87,19 86.5,19 86,19 86,18.5 86,18 86,17.5 86,17 85.5,17 85,17 85,16.5 85,16 85,15.5 85,15 84.5,15 84,15 84,14.5 84,14 84,13.5 84,13 83.5,13 83,13 83,12.5 83,12 82.5,12 q -0.5,0 -1,0 -0.5,0 -1,0 -0.5,0 -1,0 -0.5,0 -1,0 -0.5,0 -1,0 -0.5,0 -1,0 -0.5,0 -1,0 -0.5,0 -1,0 -0.5,0 -1,0 -0.5,0 -1,0 -0.5,0 -1,0 -0.5,0 -1,0 -0.5,0 -1,0 -0.5,0 -1,0 -0.5,0 -1,0 -0.5,0 -1,0 -0.5,0 -1,0 -0.5,0 -1,0 -0.5,0 -1,0 -0.5,0 -1,0 -0.5,0 -1,0 -0.5,0 -1,0 -0.5,0 -1,0 -0.5,0 -1,0 -0.5,0 -1,0 -0.5,0 -1,0 -0.5,0 -1,0 -0.5,0 -1,0 -0.5,0 -1,0 -0.5,0 -1,0 -0.5,0 -1,0 -0.5,0 -1,0 -0.5,0 -1,0 -0.5,0 -1,0 -0.5,0 -1,0 -0.5,0 -1,0 -0.5,0 -1,0 -0.5,0 -1,0 -0.5,0 -1,0 -0.5,0 -1,0 -0.5,0 -1,0 -0.5,0 -1,0 -0.5,0 -1,0 -0.5,0 -1,0 -0.5,0 -1,0 -0.5,0 -1,0 -0.5,0 -1,0 -0.5,0 -1,0 -0.5,0 -1,0 -0.5,0 -1,0 -0.5,0 -1,0 -0.5,0 -1,0 -0.5,0 -1,0 -0.5,0 -1,0 -0.5,0 -1,0 -0.5,0 -1,0 -0.5,0 -1,0 -0.5,0 -1,0 -0.5,0 -1,0 -0.5,0 -1,0 -0.5,0 -1,0 -0.5,0 -1,0 -0.5,0 -1,0 -0.5,0 -1,0 -0.5,0 -1,0 -0.5,0 -1,0 -0.5,0 -1,0 -0.5,0 -1,0 -0.5,0 -1,0 -0.5,0 -1,0 -0.5,0 -1,0 -0.5,0 -1,0 -0.5,0 -1,0 -0.5,0 -1,0 -0.5,0 -1,0 -0.5,0 -1,0 -0.5,0 -1,0 -0.5,0 -1,0 -0.5,0 -1,0 -0.5,0 -1,0 -0.5,0 -1,0 -0.5,0 -1,0 H 0 V 11.5 11 10.5 10 9.5 9 8.5 8 7.5 7 6.5 6 5.5 5 4.5 4 3.5 3 2.5 2 1.5 1 0.5"
       id="path7"
       inkscape:connector-curvature="0" />
    <path
       style="fill:#000000;fill-opacity:1"
       d="M 0,12.5 V 12 h 0.5 q 0.5,0 1,0 0.5,0 1,0 0.5,0 1,0 0.5,0 1,0 0.5,0 1,0 0.5,0 1,0 0.5,0 1,0 0.5,0 1,0 0.5,0 1,0 0.5,0 1,0 0.5,0 1,0 0.5,0 1,0 0.5,0 1,0 0.5,0 1,0 0.5,0 1,0 0.5,0 1,0 0.5,0 1,0 0.5,0 1,0 0.5,0 1,0 0.5,0 1,0 0.5,0 1,0 0.5,0 1,0 0.5,0 1,0 0.5,0 1,0 0.5,0 1,0 0.5,0 1,0 0.5,0 1,0 0.5,0 1,0 0.5,0 1,0 0.5,0 1,0 0.5,0 1,0 0.5,0 1,0 0.5,0 1,0 0.5,0 1,0 0.5,0 1,0 0.5,0 1,0 0.5,0 1,0 0.5,0 1,0 0.5,0 1,0 0.5,0 1,0 0.5,0 1,0 0.5,0 1,0 0.5,0 1,0 0.5,0 1,0 0.5,0 1,0 0.5,0 1,0 0.5,0 1,0 0.5,0 1,0 0.5,0 1,0 0.5,0 1,0 0.5,0 1,0 0.5,0 1,0 0.5,0 1,0 0.5,0 1,0 0.5,0 1,0 0.5,0 1,0 0.5,0 1,0 0.5,0 1,0 0.5,0 1,0 0.5,0 1,0 0.5,0 1,0 0.5,0 1,0 0.5,0 1,0 0.5,0 1,0 0.5,0 1,0 0.5,0 1,0 0.5,0 1,0 0.5,0 1,0 0.5,0 1,0 0.5,0 1,0 0.5,0 1,0 0.5,0 1,0 0.5,0 1,0 0.5,0 1,0 0.5,0 1,0 0.5,0 1,0 0.5,0 1,0 0.5,0 1,0 0.5,0 1,0 0.5,0 1,0 0.5,0 1,0 0.5,0 1,0 0.5,0 0.5,0.5 0,0.5 0.5,0.5 0.5,0 0.5,0.5 0,0.5 0,1 0,0.5 0.5,0.5 0.5,0 0.5,0.5 0,0.5 0,1 0,0.5 0.5,0.5 0.5,0 0.5,0.5 0,0.5 0,1 0,0.5 0.5,0.5 0.5,0 0.5,0.5 0,0.5 0,1 0,0.5 0.5,0.5 0.5,0 0.5,0.5 0,0.5 0.5,0.5 0.5,0 0.5,0.5 0,0.5 0,1 0,0.5 0.5,0.5 0.5,0 0.5,0.5 0,0.5 0,1 0,0.5 0.5,0.5 0.5,0 0.5,0.5 0,0.5 0,1 0,0.5 0.5,0.5 0.5,0 0.5,0.5 0,0.5 0,1 0,0.5 0.5,0.5 0.5,0 0.5,0.5 0,0.5 0,1 0,0.5 0.5,0.5 0.5,0 0.5,0.5 0,0.5 0,1 0,0.5 0.5,0.5 0.5,0 0.5,0.5 0,0.5 0.5,0.5 0.5,0 0.5,0.5 0,0.5 0,1 0,0.5 0.5,0.5 0.5,0 0.5,0.5 0,0.5 0,1 0,0.5 0.5,0.5 0.5,0 0.5,0.5 0,0.5 0,1 0,0.5 0.5,0.5 0.5,0 0.5,0.5 0,0.5 0,1 0,0.5 0.5,0.5 0.5,0 0.5,0.5 0,0.5 0,1 0,0.5 0.5,0.5 0.5,0 0.5,0.5 0,0.5 0.5,0.5 0.5,0 0.5,0.5 0,0.5 0,1 0,0.5 0.5,0.5 0.5,0 0.5,0.5 0,0.5 0,1 0,0.5 0.5,0.5 0.5,0 0.5,0.5 0,0.5 0,1 0,0.5 0.5,0.5 0.5,0 1,0 0.5,0 0.5,-0.5 0,-0.5 0.5,-0.5 0.5,0 0.5,-0.5 0,-0.5 0,-1 0,-0.5 0.5,-0.5 0.5,0 0.5,-0.5 0,-0.5 0.5,-0.5 0.5,0 0.5,-0.5 0,-0.5 0,-1 0,-0.5 0.5,-0.5 0.5,0 0.5,-0.5 0,-0.5 0,-1 0,-0.5 0.5,-0.5 0.5,0 0.5,-0.5 0,-0.5 0.5,-0.5 0.5,0 0.5,-0.5 0,-0.5 0,-1 0,-0.5 0.5,-0.5 0.5,0 0.5,-0.5 0,-0.5 0.5,-0.5 0.5,0 0.5,-0.5 0,-0.5 0,-1 0,-0.5 0.5,-0.5 0.5,0 0.5,-0.5 0,-0.5 0,-1 0,-0.5 0.5,-0.5 0.5,0 0.5,-0.5 0,-0.5 0.5,-0.5 0.5,0 0.5,-0.5 0,-0.5 0,-1 0,-0.5 0.5,-0.5 0.5,0 0.5,-0.5 0,-0.5 0.5,-0.5 0.5,0 0.5,-0.5 0,-0.5 0,-1 0,-0.5 0.5,-0.5 0.5,0 0.5,-0.5 0,-0.5 0.5,-0.5 0.5,0 0.5,-0.5 0,-0.5 0,-1 0,-0.5 0.5,-0.5 0.5,0 0.5,-0.5 0,-0.5 0,-1 0,-0.5 0.5,-0.5 0.5,0 0.5,-0.5 0,-0.5 0.5,-0.5 0.5,0 0.5,-0.5 0,-0.5 0,-1 0,-0.5 0.5,-0.5 0.5,0 0.5,-0.5 0,-0.5 0.5,-0.5 0.5,0 0.5,-0.5 0,-0.5 0,-1 0,-0.5 0.5,-0.5 0.5,0 0.5,-0.5 0,-0.5 0,-1 0,-0.5 0.5,-0.5 0.5,0 0.5,-0.5 0,-0.5 0.5,-0.5 0.5,0 0.5,-0.5 0,-0.5 0,-1 0,-0.5 0.5,-0.5 0.5,0 0.5,-0.5 0,-0.5 0.5,-0.5 0.5,0 0.5,-0.5 0,-0.5 0.5,-0.5 0.5,0 1,0 0.5,0 1,0 0.5,0 1,0 0.5,0 1,0 0.5,0 1,0 0.5,0 1,0 0.5,0 1,0 0.5,0 1,0 0.5,0 1,0 0.5,0 1,0 0.5,0 1,0 0.5,0 1,0 0.5,0 1,0 0.5,0 1,0 0.5,0 1,0 0.5,0 1,0 0.5,0 1,0 0.5,0 1,0 0.5,0 1,0 0.5,0 1,0 0.5,0 1,0 0.5,0 1,0 0.5,0 1,0 0.5,0 1,0 0.5,0 1,0 0.5,0 1,0 0.5,0 1,0 0.5,0 1,0 0.5,0 1,0 0.5,0 1,0 0.5,0 1,0 0.5,0 1,0 0.5,0 1,0 0.5,0 1,0 0.5,0 1,0 0.5,0 1,0 0.5,0 1,0 0.5,0 1,0 0.5,0 1,0 0.5,0 1,0 0.5,0 1,0 0.5,0 1,0 0.5,0 1,0 0.5,0 1,0 0.5,0 1,0 0.5,0 1,0 0.5,0 1,0 0.5,0 1,0 0.5,0 1,0 0.5,0 1,0 0.5,0 1,0 0.5,0 1,0 0.5,0 1,0 0.5,0 1,0 0.5,0 1,0 0.5,0 1,0 0.5,0 1,0 0.5,0 1,0 0.5,0 1,0 0.5,0 1,0 0.5,0 1,0 0.5,0 1,0 0.5,0 1,0 0.5,0 1,0 0.5,0 1,0 0.5,0 1,0 0.5,0 1,0 0.5,0 1,0 0.5,0 1,0 0.5,0 1,0 0.5,0 1,0 0.5,0 1,0 0.5,0 1,0 0.5,0 1,0 0.5,0 1,0 0.5,0 1,0 0.5,0 1,0 0.5,0 1,0 h 0.5 v 0.5 0.5 0.5 0.5 h -0.5 q -0.5,0 -0.5,0.5 0,0.5 -0.5,0.5 -0.5,0 -0.5,0.5 0,0.5 0,1 0,0.5 -0.5,0.5 -0.5,0 -0.5,0.5 0,0.5 0,1 0,0.5 -0.5,0.5 -0.5,0 -0.5,0.5 0,0.5 0,1 0,0.5 -0.5,0.5 -0.5,0 -0.5,0.5 0,0.5 -0.5,0.5 -0.5,0 -0.5,0.5 0,0.5 0,1 0,0.5 -0.5,0.5 -0.5,0 -0.5,0.5 0,0.5 0,1 0,0.5 -0.5,0.5 -0.5,0 -0.5,0.5 0,0.5 -0.5,0.5 -0.5,0 -0.5,0.5 0,0.5 0,1 0,0.5 -0.5,0.5 -0.5,0 -0.5,0.5 0,0.5 0,1 0,0.5 -0.5,0.5 -0.5,0 -0.5,0.5 0,0.5 -0.5,0.5 -0.5,0 -0.5,0.5 0,0.5 0,1 0,0.5 -0.5,0.5 -0.5,0 -0.5,0.5 0,0.5 0,1 0,0.5 -0.5,0.5 -0.5,0 -0.5,0.5 0,0.5 0,1 0,0.5 -0.5,0.5 -0.5,0 -0.5,0.5 0,0.5 -0.5,0.5 -0.5,0 -0.5,0.5 0,0.5 0,1 0,0.5 -0.5,0.5 -0.5,0 -0.5,0.5 0,0.5 0,1 0,0.5 -0.5,0.5 -0.5,0 -0.5,0.5 0,0.5 0,1 0,0.5 -0.5,0.5 -0.5,0 -0.5,0.5 0,0.5 -0.5,0.5 -0.5,0 -0.5,0.5 0,0.5 0,1 0,0.5 -0.5,0.5 -0.5,0 -0.5,0.5 0,0.5 0,1 0,0.5 -0.5,0.5 -0.5,0 -0.5,0.5 0,0.5 -0.5,0.5 -0.5,0 -0.5,0.5 0,0.5 0,1 0,0.5 -0.5,0.5 -0.5,0 -0.5,0.5 0,0.5 0,1 0,0.5 -0.5,0.5 -0.5,0 -0.5,0.5 0,0.5 0,1 0,0.5 -0.5,0.5 -0.5,0 -0.5,0.5 0,0.5 -0.5,0.5 -0.5,0 -0.5,0.5 0,0.5 0,1 0,0.5 -0.5,0.5 -0.5,0 -0.5,0.5 0,0.5 0,1 0,0.5 -0.5,0.5 -0.5,0 -0.5,0.5 0,0.5 -0.5,0.5 -0.5,0 -0.5,0.5 0,0.5 0,1 0,0.5 -0.5,0.5 -0.5,0 -0.5,0.5 0,0.5 0,1 0,0.5 -0.5,0.5 -0.5,0 -0.5,0.5 0,0.5 -0.5,0.5 -0.5,0 -0.5,0.5 0,0.5 0,1 0,0.5 -0.5,0.5 -0.5,0 -0.5,0.5 0,0.5 0,1 0,0.5 -0.5,0.5 -0.5,0 -0.5,0.5 0,0.5 0,1 0,0.5 -0.5,0.5 -0.5,0 -0.5,0.5 0,0.5 -0.5,0.5 -0.5,0 -0.5,0.5 0,0.5 0,1 0,0.5 -0.5,0.5 -0.5,0 -0.5,0.5 0,0.5 0,1 0,0.5 -0.5,0.5 -0.5,0 -0.5,0.5 0,0.5 0,1 0,0.5 -0.5,0.5 -0.5,0 -0.5,0.5 0,0.5 -0.5,0.5 -0.5,0 -0.5,0.5 0,0.5 0,1 0,0.5 -0.5,0.5 -0.5,0 -0.5,0.5 0,0.5 0,1 0,0.5 -0.5,0.5 -0.5,0 -0.5,0.5 0,0.5 -0.5,0.5 -0.5,0 -0.5,0.5 0,0.5 0,1 0,0.5 -0.5,0.5 -0.5,0 -0.5,0.5 0,0.5 0,1 0,0.5 -0.5,0.5 -0.5,0 -0.5,0.5 0,0.5 -0.5,0.5 -0.5,0 -0.5,0.5 0,0.5 0,1 0,0.5 -0.5,0.5 -0.5,0 -0.5,0.5 0,0.5 0,1 0,0.5 -0.5,0.5 -0.5,0 -0.5,0.5 0,0.5 0,1 0,0.5 -0.5,0.5 -0.5,0 -0.5,0.5 0,0.5 -0.5,0.5 -0.5,0 -0.5,0.5 0,0.5 0,1 0,0.5 -0.5,0.5 -0.5,0 -0.5,0.5 0,0.5 0,1 0,0.5 -0.5,0.5 -0.5,0 -0.5,0.5 0,0.5 -0.5,0.5 -0.5,0 -0.5,0.5 0,0.5 0,1 0,0.5 -0.5,0.5 -0.5,0 -0.5,0.5 0,0.5 0,1 0,0.5 -0.5,0.5 -0.5,0 -0.5,0.5 0,0.5 0,1 0,0.5 -0.5,0.5 -0.5,0 -0.5,0.5 0,0.5 -0.5,0.5 -0.5,0 -0.5,0.5 0,0.5 0,1 0,0.5 -0.5,0.5 -0.5,0 -0.5,0.5 0,0.5 0,1 0,0.5 -0.5,0.5 -0.5,0 -0.5,0.5 0,0.5 -0.5,0.5 -0.5,0 -0.5,0.5 0,0.5 0,1 0,0.5 -0.5,0.5 -0.5,0 -0.5,0.5 0,0.5 0,1 0,0.5 -0.5,0.5 -0.5,0 -0.5,0.5 0,0.5 0,1 0,0.5 -0.5,0.5 -0.5,0 -0.5,0.5 0,0.5 -0.5,0.5 -0.5,0 -0.5,0.5 0,0.5 0,1 0,0.5 -0.5,0.5 -0.5,0 -0.5,0.5 0,0.5 0,1 0,0.5 -0.5,0.5 -0.5,0 -0.5,0.5 0,0.5 -0.5,0.5 -0.5,0 -0.5,0.5 0,0.5 0,1 0,0.5 -0.5,0.5 -0.5,0 -0.5,0.5 0,0.5 0,1 0,0.5 -0.5,0.5 -0.5,0 -0.5,0.5 0,0.5 0,1 0,0.5 -0.5,0.5 -0.5,0 -0.5,0.5 0,0.5 -0.5,0.5 -0.5,0 -0.5,0.5 0,0.5 0,1 0,0.5 -0.5,0.5 -0.5,0 -0.5,0.5 0,0.5 0,1 0,0.5 -0.5,0.5 -0.5,0 -0.5,0.5 0,0.5 -0.5,0.5 -0.5,0 -0.5,0.5 0,0.5 0,1 0,0.5 -0.5,0.5 -0.5,0 -0.5,0.5 0,0.5 0,1 0,0.5 -0.5,0.5 -0.5,0 -0.5,0.5 0,0.5 0,1 0,0.5 -0.5,0.5 -0.5,0 -0.5,0.5 0,0.5 -0.5,0.5 -0.5,0 -0.5,0.5 0,0.5 0,1 0,0.5 -0.5,0.5 -0.5,0 -0.5,0.5 0,0.5 0,1 0,0.5 -0.5,0.5 -0.5,0 -0.5,0.5 0,0.5 -0.5,0.5 -0.5,0 -0.5,0.5 0,0.5 0,1 0,0.5 -0.5,0.5 -0.5,0 -0.5,0.5 0,0.5 0,1 0,0.5 -0.5,0.5 -0.5,0 -0.5,0.5 0,0.5 0,1 0,0.5 -0.5,0.5 -0.5,0 -0.5,0.5 0,0.5 -0.5,0.5 -0.5,0 -0.5,0.5 0,0.5 0,1 0,0.5 -0.5,0.5 -0.5,0 -0.5,0.5 0,0.5 0,1 0,0.5 -0.5,0.5 -0.5,0 -0.5,0.5 0,0.5 -0.5,0.5 -0.5,0 -0.5,0.5 0,0.5 0,1 0,0.5 -0.5,0.5 -0.5,0 -0.5,0.5 0,0.5 0,1 0,0.5 -0.5,0.5 -0.5,0 -0.5,0.5 0,0.5 0,1 0,0.5 -0.5,0.5 -0.5,0 -0.5,0.5 0,0.5 -0.5,0.5 -0.5,0 -0.5,0.5 0,0.5 0,1 0,0.5 -0.5,0.5 -0.5,0 -0.5,0.5 0,0.5 0,1 0,0.5 -0.5,0.5 -0.5,0 -0.5,0.5 0,0.5 -0.5,0.5 -0.5,0 -0.5,0.5 0,0.5 0,1 0,0.5 -0.5,0.5 -0.5,0 -0.5,0.5 0,0.5 0,1 0,0.5 -0.5,0.5 -0.5,0 -0.5,0.5 0,0.5 0,1 0,0.5 -0.5,0.5 -0.5,0 -0.5,0.5 0,0.5 -0.5,0.5 -0.5,0 -0.5,0.5 0,0.5 0,1 0,0.5 -0.5,0.5 -0.5,0 -0.5,0.5 0,0.5 0,1 0,0.5 -0.5,0.5 -0.5,0 -0.5,0.5 0,0.5 -0.5,0.5 -0.5,0 -0.5,0.5 0,0.5 0,1 0,0.5 -0.5,0.5 -0.5,0 -0.5,0.5 0,0.5 0,1 0,0.5 -0.5,0.5 -0.5,0 -1,0 -0.5,0 -0.5,-0.5 0,-0.5 0,-1 0,-0.5 -0.5,-0.5 -0.5,0 -0.5,-0.5 0,-0.5 0,-1 0,-0.5 -0.5,-0.5 -0.5,0 -0.5,-0.5 0,-0.5 -0.5,-0.5 -0.5,0 -0.5,-0.5 0,-0.5 0,-1 0,-0.5 -0.5,-0.5 -0.5,0 -0.5,-0.5 0,-0.5 0,-1 0,-0.5 -0.5,-0.5 -0.5,0 -0.5,-0.5 0,-0.5 -0.5,-0.5 -0.5,0 -0.5,-0.5 0,-0.5 0,-1 0,-0.5 -0.5,-0.5 -0.5,0 -0.5,-0.5 0,-0.5 0,-1 0,-0.5 -0.5,-0.5 -0.5,0 -0.5,-0.5 0,-0.5 0,-1 0,-0.5 -0.5,-0.5 -0.5,0 -0.5,-0.5 0,-0.5 -0.5,-0.5 -0.5,0 -0.5,-0.5 0,-0.5 0,-1 0,-0.5 -0.5,-0.5 -0.5,0 -0.5,-0.5 0,-0.5 0,-1 0,-0.5 -0.5,-0.5 -0.5,0 -0.5,-0.5 0,-0.5 -0.5,-0.5 -0.5,0 -0.5,-0.5 0,-0.5 0,-1 0,-0.5 -0.5,-0.5 -0.5,0 -0.5,-0.5 0,-0.5 0,-1 0,-0.5 -0.5,-0.5 -0.5,0 -0.5,-0.5 0,-0.5 0,-1 0,-0.5 -0.5,-0.5 -0.5,0 -0.5,-0.5 0,-0.5 -0.5,-0.5 -0.5,0 -0.5,-0.5 0,-0.5 0,-1 0,-0.5 -0.5,-0.5 -0.5,0 -0.5,-0.5 0,-0.5 0,-1 0,-0.5 -0.5,-0.5 -0.5,0 -0.5,-0.5 0,-0.5 -0.5,-0.5 -0.5,0 -0.5,-0.5 0,-0.5 0,-1 0,-0.5 -0.5,-0.5 -0.5,0 -0.5,-0.5 0,-0.5 0,-1 0,-0.5 -0.5,-0.5 -0.5,0 -0.5,-0.5 0,-0.5 0,-1 0,-0.5 -0.5,-0.5 -0.5,0 -0.5,-0.5 0,-0.5 -0.5,-0.5 -0.5,0 -0.5,-0.5 0,-0.5 0,-1 0,-0.5 -0.5,-0.5 -0.5,0 -0.5,-0.5 0,-0.5 0,-1 0,-0.5 -0.5,-0.5 -0.5,0 -0.5,-0.5 0,-0.5 -0.5,-0.5 -0.5,0 -0.5,-0.5 0,-0.5 0,-1 0,-0.5 -0.5,-0.5 -0.5,0 -0.5,-0.5 0,-0.5 0,-1 0,-0.5 -0.5,-0.5 -0.5,0 -0.5,-0.5 0,-0.5 0,-1 0,-0.5 -0.5,-0.5 -0.5,0 -0.5,-0.5 0,-0.5 -0.5,-0.5 -0.5,0 -0.5,-0.5 0,-0.5 0,-1 0,-0.5 -0.5,-0.5 -0.5,0 -0.5,-0.5 0,-0.5 0,-1 0,-0.5 -0.5,-0.5 -0.5,0 -0.5,-0.5 0,-0.5 -0.5,-0.5 -0.5,0 -0.5,-0.5 0,-0.5 0,-1 0,-0.5 -0.5,-0.5 -0.5,0 -0.5,-0.5 0,-0.5 0,-1 0,-0.5 -0.5,-0.5 -0.5,0 -0.5,-0.5 0,-0.5 0,-1 0,-0.5 -0.5,-0.5 -0.5,0 -0.5,-0.5 0,-0.5 -0.5,-0.5 -0.5,0 -0.5,-0.5 0,-0.5 0,-1 0,-0.5 -0.5,-0.5 -0.5,0 -0.5,-0.5 0,-0.5 0,-1 0,-0.5 -0.5,-0.5 -0.5,0 -0.5,-0.5 0,-0.5 -0.5,-0.5 -0.5,0 -0.5,-0.5 0,-0.5 0,-1 0,-0.5 -0.5,-0.5 -0.5,0 -0.5,-0.5 0,-0.5 0,-1 0,-0.5 -0.5,-0.5 -0.5,0 -0.5,-0.5 0,-0.5 0,-1 0,-0.5 -0.5,-0.5 -0.5,0 -0.5,-0.5 0,-0.5 -0.5,-0.5 -0.5,0 -0.5,-0.5 0,-0.5 0,-1 0,-0.5 -0.5,-0.5 -0.5,0 -0.5,-0.5 0,-0.5 0,-1 0,-0.5 -0.5,-0.5 -0.5,0 -0.5,-0.5 0,-0.5 -0.5,-0.5 -0.5,0 -0.5,-0.5 0,-0.5 0,-1 0,-0.5 -0.5,-0.5 -0.5,0 -0.5,-0.5 0,-0.5 0,-1 0,-0.5 -0.5,-0.5 -0.5,0 -0.5,-0.5 0,-0.5 0,-1 0,-0.5 -0.5,-0.5 -0.5,0 -0.5,-0.5 0,-0.5 -0.5,-0.5 -0.5,0 -0.5,-0.5 0,-0.5 0,-1 0,-0.5 -0.5,-0.5 -0.5,0 -0.5,-0.5 0,-0.5 0,-1 Q 51,99 50.5,99 50,99 50,98.5 50,98 49.5,98 49,98 49,97.5 49,97 49,96.5 49,96 48.5,96 48,96 48,95.5 48,95 48,94.5 48,94 47.5,94 47,94 47,93.5 47,93 47,92.5 47,92 46.5,92 46,92 46,91.5 46,91 45.5,91 45,91 45,90.5 45,90 45,89.5 45,89 44.5,89 44,89 44,88.5 44,88 44,87.5 44,87 43.5,87 43,87 43,86.5 43,86 42.5,86 42,86 42,85.5 42,85 42,84.5 42,84 41.5,84 41,84 41,83.5 41,83 41,82.5 41,82 40.5,82 40,82 40,81.5 40,81 39.5,81 39,81 39,80.5 39,80 39,79.5 39,79 38.5,79 38,79 38,78.5 38,78 38,77.5 38,77 37.5,77 37,77 37,76.5 37,76 37,75.5 37,75 36.5,75 36,75 36,74.5 36,74 35.5,74 35,74 35,73.5 35,73 35,72.5 35,72 34.5,72 34,72 34,71.5 34,71 34,70.5 34,70 33.5,70 33,70 33,69.5 33,69 33,68.5 33,68 32.5,68 32,68 32,67.5 32,67 31.5,67 31,67 31,66.5 31,66 31,65.5 31,65 30.5,65 30,65 30,64.5 30,64 30,63.5 30,63 29.5,63 29,63 29,62.5 29,62 28.5,62 28,62 28,61.5 28,61 28,60.5 28,60 27.5,60 27,60 27,59.5 27,59 27,58.5 27,58 26.5,58 26,58 26,57.5 26,57 25.5,57 25,57 25,56.5 25,56 25,55.5 25,55 24.5,55 24,55 24,54.5 24,54 24,53.5 24,53 23.5,53 23,53 23,52.5 23,52 23,51.5 23,51 22.5,51 22,51 22,50.5 22,50 21.5,50 21,50 21,49.5 21,49 21,48.5 21,48 20.5,48 20,48 20,47.5 20,47 20,46.5 20,46 19.5,46 19,46 19,45.5 19,45 18.5,45 18,45 18,44.5 18,44 18,43.5 18,43 17.5,43 17,43 17,42.5 17,42 17,41.5 17,41 16.5,41 16,41 16,40.5 16,40 16,39.5 16,39 15.5,39 15,39 15,38.5 15,38 14.5,38 14,38 14,37.5 14,37 14,36.5 14,36 13.5,36 13,36 13,35.5 13,35 13,34.5 13,34 12.5,34 12,34 12,33.5 12,33 12,32.5 12,32 11.5,32 11,32 11,31.5 11,31 10.5,31 10,31 10,30.5 10,30 10,29.5 10,29 9.5,29 9,29 9,28.5 9,28 9,27.5 9,27 8.5,27 8,27 8,26.5 8,26 7.5,26 7,26 7,25.5 7,25 7,24.5 7,24 6.5,24 6,24 6,23.5 6,23 6,22.5 6,22 5.5,22 5,22 5,21.5 5,21 4.5,21 4,21 4,20.5 4,20 4,19.5 4,19 3.5,19 3,19 3,18.5 3,18 3,17.5 3,17 2.5,17 2,17 2,16.5 2,16 2,15.5 2,15 1.5,15 1,15 1,14.5 1,14 0.5,14 H 0 V 13.5 13 12.5 M 105.5,161 q 0.5,0 0.5,-0.5 0,-0.5 0,-1 0,-0.5 0.5,-0.5 0.5,0 0.5,-0.5 0,-0.5 0,-1 0,-0.5 0.5,-0.5 0.5,0 0.5,-0.5 0,-0.5 0.5,-0.5 0.5,0 0.5,-0.5 0,-0.5 0,-1 0,-0.5 0.5,-0.5 0.5,0 0.5,-0.5 0,-0.5 0,-1 0,-0.5 0.5,-0.5 0.5,0 0.5,-0.5 0,-0.5 0,-1 0,-0.5 0.5,-0.5 0.5,0 0.5,-0.5 0,-0.5 0.5,-0.5 0.5,0 0.5,-0.5 0,-0.5 0,-1 0,-0.5 0.5,-0.5 0.5,0 0.5,-0.5 0,-0.5 0,-1 0,-0.5 0.5,-0.5 0.5,0 0.5,-0.5 0,-0.5 0.5,-0.5 0.5,0 0.5,-0.5 0,-0.5 0,-1 0,-0.5 0.5,-0.5 0.5,0 0.5,-0.5 0,-0.5 0,-1 0,-0.5 0.5,-0.5 0.5,0 0.5,-0.5 0,-0.5 0,-1 0,-0.5 0.5,-0.5 0.5,0 0.5,-0.5 0,-0.5 0.5,-0.5 0.5,0 0.5,-0.5 0,-0.5 0,-1 0,-0.5 0.5,-0.5 0.5,0 0.5,-0.5 0,-0.5 0,-1 0,-0.5 0.5,-0.5 0.5,0 0.5,-0.5 0,-0.5 0.5,-0.5 0.5,0 0.5,-0.5 0,-0.5 0,-1 0,-0.5 0.5,-0.5 0.5,0 0.5,-0.5 0,-0.5 0,-1 0,-0.5 0.5,-0.5 0.5,0 0.5,-0.5 0,-0.5 0,-1 0,-0.5 0.5,-0.5 0.5,0 0.5,-0.5 0,-0.5 0.5,-0.5 0.5,0 0.5,-0.5 0,-0.5 0,-1 0,-0.5 0.5,-0.5 0.5,0 0.5,-0.5 0,-0.5 0,-1 0,-0.5 0.5,-0.5 0.5,0 0.5,-0.5 0,-0.5 0.5,-0.5 0.5,0 0.5,-0.5 0,-0.5 0,-1 0,-0.5 0.5,-0.5 0.5,0 0.5,-0.5 0,-0.5 0,-1 0,-0.5 0.5,-0.5 0.5,0 0.5,-0.5 0,-0.5 0,-1 0,-0.5 0.5,-0.5 0.5,0 0.5,-0.5 0,-0.5 0.5,-0.5 0.5,0 0.5,-0.5 0,-0.5 0,-1 0,-0.5 0.5,-0.5 0.5,0 0.5,-0.5 0,-0.5 0,-1 0,-0.5 0.5,-0.5 0.5,0 0.5,-0.5 0,-0.5 0.5,-0.5 0.5,0 0.5,-0.5 0,-0.5 0,-1 0,-0.5 0.5,-0.5 0.5,0 0.5,-0.5 0,-0.5 0,-1 0,-0.5 0.5,-0.5 0.5,0 0.5,-0.5 0,-0.5 0,-1 0,-0.5 0.5,-0.5 0.5,0 0.5,-0.5 0,-0.5 0.5,-0.5 0.5,0 0.5,-0.5 0,-0.5 0,-1 0,-0.5 0.5,-0.5 0.5,0 0.5,-0.5 0,-0.5 0,-1 0,-0.5 0.5,-0.5 0.5,0 0.5,-0.5 0,-0.5 0.5,-0.5 0.5,0 0.5,-0.5 0,-0.5 0,-1 0,-0.5 0.5,-0.5 0.5,0 0.5,-0.5 0,-0.5 0,-1 0,-0.5 0.5,-0.5 0.5,0 0.5,-0.5 0,-0.5 0,-1 0,-0.5 0.5,-0.5 0.5,0 0.5,-0.5 0,-0.5 0.5,-0.5 0.5,0 0.5,-0.5 0,-0.5 0,-1 0,-0.5 0.5,-0.5 0.5,0 0.5,-0.5 0,-0.5 0,-1 0,-0.5 0.5,-0.5 0.5,0 0.5,-0.5 0,-0.5 0.5,-0.5 0.5,0 0.5,-0.5 0,-0.5 0,-1 0,-0.5 0.5,-0.5 0.5,0 0.5,-0.5 0,-0.5 0,-1 0,-0.5 0.5,-0.5 0.5,0 0.5,-0.5 0,-0.5 0,-1 0,-0.5 0.5,-0.5 0.5,0 0.5,-0.5 0,-0.5 0.5,-0.5 0.5,0 0.5,-0.5 0,-0.5 0,-1 0,-0.5 0.5,-0.5 0.5,0 0.5,-0.5 0,-0.5 0,-1 0,-0.5 0.5,-0.5 0.5,0 0.5,-0.5 0,-0.5 0.5,-0.5 0.5,0 0.5,-0.5 0,-0.5 0,-1 0,-0.5 0.5,-0.5 0.5,0 0.5,-0.5 0,-0.5 0,-1 0,-0.5 0.5,-0.5 0.5,0 0.5,-0.5 0,-0.5 0,-1 0,-0.5 0.5,-0.5 0.5,0 0.5,-0.5 0,-0.5 0.5,-0.5 0.5,0 0.5,-0.5 0,-0.5 0,-1 0,-0.5 0.5,-0.5 0.5,0 0.5,-0.5 0,-0.5 0,-1 0,-0.5 0.5,-0.5 0.5,0 0.5,-0.5 0,-0.5 0.5,-0.5 0.5,0 0.5,-0.5 0,-0.5 0,-1 0,-0.5 0.5,-0.5 0.5,0 0.5,-0.5 0,-0.5 0,-1 0,-0.5 0.5,-0.5 0.5,0 0.5,-0.5 0,-0.5 0,-1 0,-0.5 0.5,-0.5 0.5,0 0.5,-0.5 0,-0.5 0.5,-0.5 0.5,0 0.5,-0.5 0,-0.5 0,-1 0,-0.5 0.5,-0.5 0.5,0 0.5,-0.5 0,-0.5 0,-1 0,-0.5 0.5,-0.5 0.5,0 0.5,-0.5 0,-0.5 0.5,-0.5 0.5,0 0.5,-0.5 0,-0.5 0,-1 0,-0.5 0.5,-0.5 0.5,0 0.5,-0.5 0,-0.5 0,-1 0,-0.5 0.5,-0.5 0.5,0 0.5,-0.5 0,-0.5 0,-1 0,-0.5 0.5,-0.5 0.5,0 0.5,-0.5 0,-0.5 0.5,-0.5 0.5,0 0.5,-0.5 0,-0.5 0,-1 0,-0.5 0.5,-0.5 0.5,0 0.5,-0.5 0,-0.5 0,-1 0,-0.5 0.5,-0.5 0.5,0 0.5,-0.5 0,-0.5 0.5,-0.5 0.5,0 0.5,-0.5 0,-0.5 0,-1 0,-0.5 0.5,-0.5 0.5,0 0.5,-0.5 0,-0.5 0,-1 0,-0.5 0.5,-0.5 0.5,0 0.5,-0.5 0,-0.5 0,-1 0,-0.5 0.5,-0.5 0.5,0 0.5,-0.5 0,-0.5 0.5,-0.5 0.5,0 0.5,-0.5 0,-0.5 -0.5,-0.5 -0.5,0 -1,0 -0.5,0 -1,0 -0.5,0 -1,0 -0.5,0 -1,0 -0.5,0 -1,0 -0.5,0 -1,0 -0.5,0 -1,0 -0.5,0 -1,0 -0.5,0 -1,0 -0.5,0 -1,0 -0.5,0 -1,0 -0.5,0 -1,0 -0.5,0 -1,0 -0.5,0 -1,0 -0.5,0 -1,0 -0.5,0 -1,0 -0.5,0 -1,0 -0.5,0 -1,0 -0.5,0 -1,0 -0.5,0 -1,0 -0.5,0 -1,0 -0.5,0 -1,0 -0.5,0 -1,0 -0.5,0 -1,0 -0.5,0 -0.5,0.5 0,0.5 0,1 0,0.5 -0.5,0.5 -0.5,0 -0.5,0.5 0,0.5 -0.5,0.5 -0.5,0 -0.5,0.5 0,0.5 0,1 0,0.5 -0.5,0.5 -0.5,0 -0.5,0.5 0,0.5 0,1 0,0.5 -0.5,0.5 -0.5,0 -0.5,0.5 0,0.5 0,1 0,0.5 -0.5,0.5 -0.5,0 -0.5,0.5 0,0.5 -0.5,0.5 -0.5,0 -0.5,0.5 0,0.5 0,1 0,0.5 -0.5,0.5 -0.5,0 -0.5,0.5 0,0.5 0,1 0,0.5 -0.5,0.5 -0.5,0 -0.5,0.5 0,0.5 0,1 0,0.5 -0.5,0.5 -0.5,0 -0.5,0.5 0,0.5 -0.5,0.5 -0.5,0 -0.5,0.5 0,0.5 0,1 0,0.5 -0.5,0.5 -0.5,0 -0.5,0.5 0,0.5 0,1 0,0.5 -0.5,0.5 -0.5,0 -0.5,0.5 0,0.5 0,1 0,0.5 -0.5,0.5 -0.5,0 -0.5,0.5 0,0.5 -0.5,0.5 -0.5,0 -0.5,0.5 0,0.5 0,1 0,0.5 -0.5,0.5 -0.5,0 -0.5,0.5 0,0.5 0,1 0,0.5 -0.5,0.5 -0.5,0 -0.5,0.5 0,0.5 -0.5,0.5 -0.5,0 -0.5,0.5 0,0.5 0,1 0,0.5 -0.5,0.5 -0.5,0 -0.5,0.5 0,0.5 0,1 0,0.5 -0.5,0.5 -0.5,0 -0.5,0.5 0,0.5 0,1 0,0.5 -0.5,0.5 -0.5,0 -0.5,0.5 0,0.5 -0.5,0.5 -0.5,0 -0.5,0.5 0,0.5 0,1 0,0.5 -0.5,0.5 -0.5,0 -0.5,0.5 0,0.5 0,1 0,0.5 -0.5,0.5 -0.5,0 -0.5,0.5 0,0.5 0,1 0,0.5 -0.5,0.5 -0.5,0 -0.5,0.5 0,0.5 -0.5,0.5 -0.5,0 -0.5,0.5 0,0.5 0,1 0,0.5 -0.5,0.5 -0.5,0 -0.5,0.5 0,0.5 0,1 0,0.5 -0.5,0.5 -0.5,0 -0.5,0.5 0,0.5 0,1 0,0.5 -0.5,0.5 -0.5,0 -0.5,0.5 0,0.5 -0.5,0.5 -0.5,0 -0.5,0.5 0,0.5 0,1 0,0.5 -0.5,0.5 -0.5,0 -0.5,0.5 0,0.5 0,1 0,0.5 -0.5,0.5 -0.5,0 -0.5,0.5 0,0.5 -0.5,0.5 -0.5,0 -0.5,0.5 0,0.5 0,1 0,0.5 -0.5,0.5 -0.5,0 -0.5,0.5 0,0.5 0,1 0,0.5 -0.5,0.5 -0.5,0 -0.5,0.5 0,0.5 0,1 0,0.5 -0.5,0.5 -0.5,0 -0.5,0.5 0,0.5 -0.5,0.5 -0.5,0 -0.5,0.5 0,0.5 0,1 0,0.5 -0.5,0.5 -0.5,0 -0.5,0.5 0,0.5 0,1 0,0.5 -0.5,0.5 -0.5,0 -0.5,0.5 0,0.5 0,1 0,0.5 -0.5,0.5 -0.5,0 -0.5,0.5 0,0.5 -0.5,0.5 -0.5,0 -0.5,0.5 0,0.5 0,1 0,0.5 -0.5,0.5 -0.5,0 -0.5,0.5 0,0.5 0,1 0,0.5 -0.5,0.5 -0.5,0 -0.5,0.5 0,0.5 0,1 0,0.5 -0.5,0.5 -0.5,0 -0.5,0.5 0,0.5 -0.5,0.5 -0.5,0 -0.5,0.5 0,0.5 0,1 0,0.5 -0.5,0.5 -0.5,0 -0.5,0.5 0,0.5 0,1 0,0.5 -0.5,0.5 -0.5,0 -0.5,0.5 0,0.5 -0.5,0.5 -0.5,0 -0.5,0.5 0,0.5 0,1 0,0.5 -0.5,0.5 -0.5,0 -0.5,0.5 0,0.5 0,1 0,0.5 -0.5,0.5 -0.5,0 -0.5,0.5 0,0.5 0,1 0,0.5 -0.5,0.5 -0.5,0 -0.5,0.5 0,0.5 -0.5,0.5 -0.5,0 -0.5,0.5 0,0.5 0,1 0,0.5 -0.5,0.5 -0.5,0 -0.5,0.5 0,0.5 0,1 0,0.5 -0.5,0.5 -0.5,0 -1,0 -0.5,0 -0.5,-0.5 0,-0.5 0,-1 0,-0.5 -0.5,-0.5 -0.5,0 -0.5,-0.5 0,-0.5 0,-1 0,-0.5 -0.5,-0.5 -0.5,0 -0.5,-0.5 0,-0.5 -0.5,-0.5 -0.5,0 -0.5,-0.5 0,-0.5 0,-1 0,-0.5 -0.5,-0.5 -0.5,0 -0.5,-0.5 0,-0.5 0,-1 0,-0.5 -0.5,-0.5 -0.5,0 -0.5,-0.5 0,-0.5 0,-1 0,-0.5 -0.5,-0.5 -0.5,0 -0.5,-0.5 0,-0.5 -0.5,-0.5 -0.5,0 -0.5,-0.5 0,-0.5 0,-1 0,-0.5 -0.5,-0.5 -0.5,0 -0.5,-0.5 0,-0.5 0,-1 0,-0.5 -0.5,-0.5 -0.5,0 -0.5,-0.5 0,-0.5 -0.5,-0.5 -0.5,0 -0.5,-0.5 0,-0.5 0,-1 0,-0.5 -0.5,-0.5 -0.5,0 -0.5,-0.5 0,-0.5 0,-1 Q 93,99 92.5,99 92,99 92,98.5 92,98 92,97.5 92,97 91.5,97 91,97 91,96.5 91,96 90.5,96 90,96 90,95.5 90,95 90,94.5 90,94 89.5,94 89,94 89,93.5 89,93 89,92.5 89,92 88.5,92 88,92 88,91.5 88,91 88,90.5 88,90 87.5,90 87,90 87,89.5 87,89 86.5,89 86,89 86,88.5 86,88 86,87.5 86,87 85.5,87 85,87 85,86.5 85,86 85,85.5 85,85 84.5,85 84,85 84,84.5 84,84 83.5,84 83,84 83,83.5 83,83 83,82.5 83,82 82.5,82 82,82 82,81.5 82,81 82,80.5 82,80 81.5,80 81,80 81,79.5 81,79 81,78.5 81,78 80.5,78 80,78 80,77.5 80,77 79.5,77 79,77 79,76.5 79,76 79,75.5 79,75 78.5,75 78,75 78,74.5 78,74 78,73.5 78,73 77.5,73 77,73 77,72.5 77,72 77,71.5 77,71 76.5,71 76,71 76,70.5 76,70 75.5,70 75,70 75,69.5 75,69 75,68.5 75,68 74.5,68 74,68 74,67.5 74,67 74,66.5 74,66 73.5,66 73,66 73,65.5 73,65 72.5,65 72,65 72,64.5 72,64 72,63.5 72,63 71.5,63 71,63 71,62.5 71,62 71,61.5 71,61 70.5,61 70,61 70,60.5 70,60 70,59.5 70,59 69.5,59 69,59 69,58.5 69,58 68.5,58 68,58 68,57.5 68,57 68,56.5 68,56 67.5,56 67,56 67,55.5 67,55 67,54.5 67,54 66.5,54 66,54 66,53.5 66,53 66,52.5 66,52 65.5,52 65,52 65,51.5 65,51 64.5,51 64,51 64,50.5 64,50 64,49.5 64,49 63.5,49 63,49 63,48.5 63,48 63,47.5 63,47 62.5,47 62,47 62,46.5 62,46 62,45.5 62,45 61.5,45 61,45 61,44.5 61,44 60.5,44 60,44 60,43.5 60,43 60,42.5 60,42 59.5,42 59,42 59,41.5 59,41 59,40.5 59,40 58.5,40 58,40 58,39.5 58,39 57.5,39 57,39 57,38.5 57,38 57,37.5 57,37 56.5,37 56,37 56,36.5 56,36 56,35.5 56,35 55.5,35 55,35 55,34.5 55,34 55,33.5 55,33 54.5,33 54,33 54,32.5 54,32 53.5,32 53,32 53,31.5 53,31 53,30.5 53,30 52.5,30 52,30 52,29.5 52,29 52,28.5 52,28 51.5,28 q -0.5,0 -1,0 -0.5,0 -1,0 -0.5,0 -1,0 -0.5,0 -1,0 -0.5,0 -1,0 -0.5,0 -1,0 -0.5,0 -1,0 -0.5,0 -1,0 -0.5,0 -1,0 -0.5,0 -1,0 -0.5,0 -1,0 -0.5,0 -1,0 -0.5,0 -1,0 -0.5,0 -1,0 -0.5,0 -1,0 -0.5,0 -1,0 -0.5,0 -1,0 -0.5,0 -1,0 -0.5,0 -1,0 -0.5,0 -1,0 -0.5,0 -1,0 -0.5,0 -1,0 -0.5,0 -1,0 -0.5,0 -1,0 -0.5,0 -0.5,0.5 0,0.5 0.5,0.5 0.5,0 0.5,0.5 0,0.5 0,1 0,0.5 0.5,0.5 0.5,0 0.5,0.5 0,0.5 0.5,0.5 0.5,0 0.5,0.5 0,0.5 0,1 0,0.5 0.5,0.5 0.5,0 0.5,0.5 0,0.5 0,1 0,0.5 0.5,0.5 0.5,0 0.5,0.5 0,0.5 0.5,0.5 0.5,0 0.5,0.5 0,0.5 0,1 0,0.5 0.5,0.5 0.5,0 0.5,0.5 0,0.5 0,1 0,0.5 0.5,0.5 0.5,0 0.5,0.5 0,0.5 0,1 0,0.5 0.5,0.5 0.5,0 0.5,0.5 0,0.5 0.5,0.5 0.5,0 0.5,0.5 0,0.5 0,1 0,0.5 0.5,0.5 0.5,0 0.5,0.5 0,0.5 0,1 0,0.5 0.5,0.5 0.5,0 0.5,0.5 0,0.5 0.5,0.5 0.5,0 0.5,0.5 0,0.5 0,1 0,0.5 0.5,0.5 0.5,0 0.5,0.5 0,0.5 0,1 0,0.5 0.5,0.5 0.5,0 0.5,0.5 0,0.5 0,1 0,0.5 0.5,0.5 0.5,0 0.5,0.5 0,0.5 0.5,0.5 0.5,0 0.5,0.5 0,0.5 0,1 0,0.5 0.5,0.5 0.5,0 0.5,0.5 0,0.5 0,1 0,0.5 0.5,0.5 0.5,0 0.5,0.5 0,0.5 0.5,0.5 0.5,0 0.5,0.5 0,0.5 0,1 0,0.5 0.5,0.5 0.5,0 0.5,0.5 0,0.5 0,1 0,0.5 0.5,0.5 0.5,0 0.5,0.5 0,0.5 0,1 0,0.5 0.5,0.5 0.5,0 0.5,0.5 0,0.5 0.5,0.5 0.5,0 0.5,0.5 0,0.5 0,1 0,0.5 0.5,0.5 0.5,0 0.5,0.5 0,0.5 0,1 0,0.5 0.5,0.5 0.5,0 0.5,0.5 0,0.5 0.5,0.5 0.5,0 0.5,0.5 0,0.5 0,1 0,0.5 0.5,0.5 0.5,0 0.5,0.5 0,0.5 0,1 0,0.5 0.5,0.5 0.5,0 0.5,0.5 0,0.5 0.5,0.5 0.5,0 0.5,0.5 0,0.5 0,1 0,0.5 0.5,0.5 0.5,0 0.5,0.5 0,0.5 0,1 0,0.5 0.5,0.5 0.5,0 0.5,0.5 0,0.5 0,1 0,0.5 0.5,0.5 0.5,0 0.5,0.5 0,0.5 0.5,0.5 0.5,0 0.5,0.5 0,0.5 0,1 0,0.5 0.5,0.5 0.5,0 0.5,0.5 0,0.5 0,1 0,0.5 0.5,0.5 0.5,0 0.5,0.5 0,0.5 0,1 0,0.5 0.5,0.5 0.5,0 0.5,0.5 0,0.5 0.5,0.5 0.5,0 0.5,0.5 0,0.5 0,1 0,0.5 0.5,0.5 0.5,0 0.5,0.5 0,0.5 0,1 0,0.5 0.5,0.5 0.5,0 0.5,0.5 0,0.5 0.5,0.5 0.5,0 0.5,0.5 0,0.5 0,1 0,0.5 0.5,0.5 0.5,0 0.5,0.5 0,0.5 0,1 0,0.5 0.5,0.5 0.5,0 0.5,0.5 0,0.5 0.5,0.5 0.5,0 0.5,0.5 0,0.5 0,1 0,0.5 0.5,0.5 0.5,0 0.5,0.5 0,0.5 0,1 0,0.5 0.5,0.5 0.5,0 0.5,0.5 0,0.5 0,1 0,0.5 0.5,0.5 0.5,0 0.5,0.5 0,0.5 0.5,0.5 0.5,0 0.5,0.5 0,0.5 0,1 0,0.5 0.5,0.5 0.5,0 0.5,0.5 0,0.5 0,1 0,0.5 0.5,0.5 0.5,0 0.5,0.5 0,0.5 0.5,0.5 0.5,0 0.5,0.5 0,0.5 0,1 0,0.5 0.5,0.5 0.5,0 0.5,0.5 0,0.5 0,1 0,0.5 0.5,0.5 0.5,0 0.5,0.5 0,0.5 0,1 0,0.5 0.5,0.5 0.5,0 0.5,0.5 0,0.5 0.5,0.5 0.5,0 0.5,0.5 0,0.5 0,1 0,0.5 0.5,0.5 0.5,0 0.5,0.5 0,0.5 0,1 0,0.5 0.5,0.5 0.5,0 0.5,0.5 0,0.5 0.5,0.5 0.5,0 0.5,0.5 0,0.5 0,1 0,0.5 0.5,0.5 0.5,0 0.5,0.5 0,0.5 0,1 0,0.5 0.5,0.5 0.5,0 0.5,0.5 0,0.5 0,1 0,0.5 0.5,0.5 0.5,0 0.5,0.5 0,0.5 0.5,0.5 0.5,0 0.5,0.5 0,0.5 0,1 0,0.5 0.5,0.5 0.5,0 0.5,0.5 0,0.5 0,1 0,0.5 0.5,0.5 0.5,0 0.5,0.5 0,0.5 0.5,0.5 0.5,0 0.5,0.5 0,0.5 0,1 0,0.5 0.5,0.5 0.5,0 0.5,0.5 0,0.5 0,1 0,0.5 0.5,0.5 0.5,0 0.5,0.5 0,0.5 0,1 0,0.5 0.5,0.5 0.5,0 0.5,0.5 0,0.5 0.5,0.5 0.5,0 0.5,0.5 0,0.5 0,1 0,0.5 0.5,0.5 0.5,0 0.5,0.5 0,0.5 0,1 0,0.5 0.5,0.5 0.5,0 0.5,0.5 0,0.5 0.5,0.5 0.5,0 0.5,0.5 0,0.5 0,1 0,0.5 0.5,0.5 0.5,0 0.5,0.5 0,0.5 0,1 0,0.5 0.5,0.5 0.5,0 0.5,0.5 0,0.5 0,1 0,0.5 0.5,0.5 0.5,0 0.5,0.5 0,0.5 0.5,0.5 0.5,0 0.5,0.5 0,0.5 0,1 0,0.5 0.5,0.5 0.5,0 0.5,0.5 0,0.5 0,1 0,0.5 0.5,0.5 0.5,0 1,0"
       id="path9"
       inkscape:connector-curvature="0" />
    <path
       style="fill:#000000;fill-opacity:0"
       d="M 0,14.5 V 14 H 0.5 Q 1,14 1,14.5 1,15 1.5,15 2,15 2,15.5 2,16 2,16.5 2,17 2.5,17 3,17 3,17.5 3,18 3,18.5 3,19 3.5,19 4,19 4,19.5 4,20 4,20.5 4,21 4.5,21 5,21 5,21.5 5,22 5.5,22 6,22 6,22.5 6,23 6,23.5 6,24 6.5,24 7,24 7,24.5 7,25 7,25.5 7,26 7.5,26 8,26 8,26.5 8,27 8.5,27 9,27 9,27.5 q 0,0.5 0,1 0,0.5 0.5,0.5 0.5,0 0.5,0.5 0,0.5 0,1 0,0.5 0.5,0.5 0.5,0 0.5,0.5 0,0.5 0.5,0.5 0.5,0 0.5,0.5 0,0.5 0,1 0,0.5 0.5,0.5 0.5,0 0.5,0.5 0,0.5 0,1 0,0.5 0.5,0.5 0.5,0 0.5,0.5 0,0.5 0,1 0,0.5 0.5,0.5 0.5,0 0.5,0.5 0,0.5 0.5,0.5 0.5,0 0.5,0.5 0,0.5 0,1 0,0.5 0.5,0.5 0.5,0 0.5,0.5 0,0.5 0,1 0,0.5 0.5,0.5 0.5,0 0.5,0.5 0,0.5 0,1 0,0.5 0.5,0.5 0.5,0 0.5,0.5 0,0.5 0.5,0.5 0.5,0 0.5,0.5 0,0.5 0,1 0,0.5 0.5,0.5 0.5,0 0.5,0.5 0,0.5 0,1 0,0.5 0.5,0.5 0.5,0 0.5,0.5 0,0.5 0.5,0.5 0.5,0 0.5,0.5 0,0.5 0,1 0,0.5 0.5,0.5 0.5,0 0.5,0.5 0,0.5 0,1 0,0.5 0.5,0.5 0.5,0 0.5,0.5 0,0.5 0,1 0,0.5 0.5,0.5 0.5,0 0.5,0.5 0,0.5 0.5,0.5 0.5,0 0.5,0.5 0,0.5 0,1 0,0.5 0.5,0.5 0.5,0 0.5,0.5 0,0.5 0,1 0,0.5 0.5,0.5 0.5,0 0.5,0.5 0,0.5 0.5,0.5 0.5,0 0.5,0.5 0,0.5 0,1 0,0.5 0.5,0.5 0.5,0 0.5,0.5 0,0.5 0,1 0,0.5 0.5,0.5 0.5,0 0.5,0.5 0,0.5 0.5,0.5 0.5,0 0.5,0.5 0,0.5 0,1 0,0.5 0.5,0.5 0.5,0 0.5,0.5 0,0.5 0,1 0,0.5 0.5,0.5 0.5,0 0.5,0.5 0,0.5 0,1 0,0.5 0.5,0.5 0.5,0 0.5,0.5 0,0.5 0.5,0.5 0.5,0 0.5,0.5 0,0.5 0,1 0,0.5 0.5,0.5 0.5,0 0.5,0.5 0,0.5 0,1 0,0.5 0.5,0.5 0.5,0 0.5,0.5 0,0.5 0,1 0,0.5 0.5,0.5 0.5,0 0.5,0.5 0,0.5 0.5,0.5 0.5,0 0.5,0.5 0,0.5 0,1 0,0.5 0.5,0.5 0.5,0 0.5,0.5 0,0.5 0,1 0,0.5 0.5,0.5 0.5,0 0.5,0.5 0,0.5 0.5,0.5 0.5,0 0.5,0.5 0,0.5 0,1 0,0.5 0.5,0.5 0.5,0 0.5,0.5 0,0.5 0,1 0,0.5 0.5,0.5 0.5,0 0.5,0.5 0,0.5 0.5,0.5 0.5,0 0.5,0.5 0,0.5 0,1 0,0.5 0.5,0.5 0.5,0 0.5,0.5 0,0.5 0,1 0,0.5 0.5,0.5 0.5,0 0.5,0.5 0,0.5 0,1 0,0.5 0.5,0.5 0.5,0 0.5,0.5 0,0.5 0.5,0.5 0.5,0 0.5,0.5 0,0.5 0,1 0,0.5 0.5,0.5 0.5,0 0.5,0.5 0,0.5 0,1 0,0.5 0.5,0.5 0.5,0 0.5,0.5 0,0.5 0.5,0.5 0.5,0 0.5,0.5 0,0.5 0,1 0,0.5 0.5,0.5 0.5,0 0.5,0.5 0,0.5 0,1 0,0.5 0.5,0.5 0.5,0 0.5,0.5 0,0.5 0,1 0,0.5 0.5,0.5 0.5,0 0.5,0.5 0,0.5 0.5,0.5 0.5,0 0.5,0.5 0,0.5 0,1 0,0.5 0.5,0.5 0.5,0 0.5,0.5 0,0.5 0,1 0,0.5 0.5,0.5 0.5,0 0.5,0.5 0,0.5 0.5,0.5 0.5,0 0.5,0.5 0,0.5 0,1 0,0.5 0.5,0.5 0.5,0 0.5,0.5 0,0.5 0,1 0,0.5 0.5,0.5 0.5,0 0.5,0.5 0,0.5 0,1 0,0.5 0.5,0.5 0.5,0 0.5,0.5 0,0.5 0.5,0.5 0.5,0 0.5,0.5 0,0.5 0,1 0,0.5 0.5,0.5 0.5,0 0.5,0.5 0,0.5 0,1 0,0.5 0.5,0.5 0.5,0 0.5,0.5 0,0.5 0.5,0.5 0.5,0 0.5,0.5 0,0.5 0,1 0,0.5 0.5,0.5 0.5,0 0.5,0.5 0,0.5 0,1 0,0.5 0.5,0.5 0.5,0 0.5,0.5 0,0.5 0,1 0,0.5 0.5,0.5 0.5,0 0.5,0.5 0,0.5 0.5,0.5 0.5,0 0.5,0.5 0,0.5 0,1 0,0.5 0.5,0.5 0.5,0 0.5,0.5 0,0.5 0,1 0,0.5 0.5,0.5 0.5,0 0.5,0.5 0,0.5 0.5,0.5 0.5,0 0.5,0.5 0,0.5 0,1 0,0.5 0.5,0.5 0.5,0 0.5,0.5 0,0.5 0,1 0,0.5 0.5,0.5 0.5,0 0.5,0.5 0,0.5 0,1 0,0.5 0.5,0.5 0.5,0 0.5,0.5 0,0.5 0.5,0.5 0.5,0 0.5,0.5 0,0.5 0,1 0,0.5 0.5,0.5 0.5,0 0.5,0.5 0,0.5 0,1 0,0.5 0.5,0.5 0.5,0 0.5,0.5 0,0.5 0.5,0.5 0.5,0 0.5,0.5 0,0.5 0,1 0,0.5 0.5,0.5 0.5,0 0.5,0.5 0,0.5 0,1 0,0.5 0.5,0.5 0.5,0 0.5,0.5 0,0.5 0,1 0,0.5 0.5,0.5 0.5,0 0.5,0.5 0,0.5 0.5,0.5 0.5,0 0.5,0.5 0,0.5 0,1 0,0.5 0.5,0.5 0.5,0 0.5,0.5 0,0.5 0,1 0,0.5 0.5,0.5 0.5,0 0.5,0.5 0,0.5 0.5,0.5 0.5,0 0.5,0.5 0,0.5 0,1 0,0.5 0.5,0.5 0.5,0 0.5,0.5 0,0.5 0,1 0,0.5 0.5,0.5 0.5,0 0.5,0.5 0,0.5 0,1 0,0.5 0.5,0.5 0.5,0 0.5,0.5 0,0.5 0.5,0.5 0.5,0 0.5,0.5 0,0.5 0,1 0,0.5 0.5,0.5 0.5,0 0.5,0.5 0,0.5 0,1 0,0.5 0.5,0.5 0.5,0 0.5,0.5 0,0.5 0.5,0.5 0.5,0 0.5,0.5 0,0.5 0,1 0,0.5 0.5,0.5 0.5,0 0.5,0.5 0,0.5 0,1 0,0.5 0.5,0.5 0.5,0 0.5,0.5 0,0.5 0,1 0,0.5 0.5,0.5 0.5,0 0.5,0.5 0,0.5 0.5,0.5 0.5,0 0.5,0.5 0,0.5 0,1 0,0.5 0.5,0.5 0.5,0 0.5,0.5 0,0.5 0,1 0,0.5 0.5,0.5 0.5,0 0.5,0.5 0,0.5 0.5,0.5 0.5,0 0.5,0.5 0,0.5 0,1 0,0.5 0.5,0.5 0.5,0 0.5,0.5 0,0.5 0,1 0,0.5 0.5,0.5 0.5,0 1,0 0.5,0 0.5,-0.5 0,-0.5 0,-1 0,-0.5 0.5,-0.5 0.5,0 0.5,-0.5 0,-0.5 0,-1 0,-0.5 0.5,-0.5 0.5,0 0.5,-0.5 0,-0.5 0.5,-0.5 0.5,0 0.5,-0.5 0,-0.5 0,-1 0,-0.5 0.5,-0.5 0.5,0 0.5,-0.5 0,-0.5 0,-1 0,-0.5 0.5,-0.5 0.5,0 0.5,-0.5 0,-0.5 0.5,-0.5 0.5,0 0.5,-0.5 0,-0.5 0,-1 0,-0.5 0.5,-0.5 0.5,0 0.5,-0.5 0,-0.5 0,-1 0,-0.5 0.5,-0.5 0.5,0 0.5,-0.5 0,-0.5 0,-1 0,-0.5 0.5,-0.5 0.5,0 0.5,-0.5 0,-0.5 0.5,-0.5 0.5,0 0.5,-0.5 0,-0.5 0,-1 0,-0.5 0.5,-0.5 0.5,0 0.5,-0.5 0,-0.5 0,-1 0,-0.5 0.5,-0.5 0.5,0 0.5,-0.5 0,-0.5 0.5,-0.5 0.5,0 0.5,-0.5 0,-0.5 0,-1 0,-0.5 0.5,-0.5 0.5,0 0.5,-0.5 0,-0.5 0,-1 0,-0.5 0.5,-0.5 0.5,0 0.5,-0.5 0,-0.5 0,-1 0,-0.5 0.5,-0.5 0.5,0 0.5,-0.5 0,-0.5 0.5,-0.5 0.5,0 0.5,-0.5 0,-0.5 0,-1 0,-0.5 0.5,-0.5 0.5,0 0.5,-0.5 0,-0.5 0,-1 0,-0.5 0.5,-0.5 0.5,0 0.5,-0.5 0,-0.5 0.5,-0.5 0.5,0 0.5,-0.5 0,-0.5 0,-1 0,-0.5 0.5,-0.5 0.5,0 0.5,-0.5 0,-0.5 0,-1 0,-0.5 0.5,-0.5 0.5,0 0.5,-0.5 0,-0.5 0,-1 0,-0.5 0.5,-0.5 0.5,0 0.5,-0.5 0,-0.5 0.5,-0.5 0.5,0 0.5,-0.5 0,-0.5 0,-1 0,-0.5 0.5,-0.5 0.5,0 0.5,-0.5 0,-0.5 0,-1 0,-0.5 0.5,-0.5 0.5,0 0.5,-0.5 0,-0.5 0.5,-0.5 0.5,0 0.5,-0.5 0,-0.5 0,-1 0,-0.5 0.5,-0.5 0.5,0 0.5,-0.5 0,-0.5 0,-1 0,-0.5 0.5,-0.5 0.5,0 0.5,-0.5 0,-0.5 0,-1 0,-0.5 0.5,-0.5 0.5,0 0.5,-0.5 0,-0.5 0.5,-0.5 0.5,0 0.5,-0.5 0,-0.5 0,-1 0,-0.5 0.5,-0.5 0.5,0 0.5,-0.5 0,-0.5 0,-1 0,-0.5 0.5,-0.5 0.5,0 0.5,-0.5 0,-0.5 0.5,-0.5 0.5,0 0.5,-0.5 0,-0.5 0,-1 0,-0.5 0.5,-0.5 0.5,0 0.5,-0.5 0,-0.5 0,-1 0,-0.5 0.5,-0.5 0.5,0 0.5,-0.5 0,-0.5 0,-1 0,-0.5 0.5,-0.5 0.5,0 0.5,-0.5 0,-0.5 0.5,-0.5 0.5,0 0.5,-0.5 0,-0.5 0,-1 0,-0.5 0.5,-0.5 0.5,0 0.5,-0.5 0,-0.5 0,-1 0,-0.5 0.5,-0.5 0.5,0 0.5,-0.5 0,-0.5 0.5,-0.5 0.5,0 0.5,-0.5 0,-0.5 0,-1 0,-0.5 0.5,-0.5 0.5,0 0.5,-0.5 0,-0.5 0,-1 0,-0.5 0.5,-0.5 0.5,0 0.5,-0.5 0,-0.5 0,-1 0,-0.5 0.5,-0.5 0.5,0 0.5,-0.5 0,-0.5 0.5,-0.5 0.5,0 0.5,-0.5 0,-0.5 0,-1 0,-0.5 0.5,-0.5 0.5,0 0.5,-0.5 0,-0.5 0,-1 0,-0.5 0.5,-0.5 0.5,0 0.5,-0.5 0,-0.5 0.5,-0.5 0.5,0 0.5,-0.5 0,-0.5 0,-1 0,-0.5 0.5,-0.5 0.5,0 0.5,-0.5 0,-0.5 0,-1 0,-0.5 0.5,-0.5 0.5,0 0.5,-0.5 0,-0.5 0,-1 0,-0.5 0.5,-0.5 0.5,0 0.5,-0.5 0,-0.5 0.5,-0.5 0.5,0 0.5,-0.5 0,-0.5 0,-1 0,-0.5 0.5,-0.5 0.5,0 0.5,-0.5 0,-0.5 0,-1 0,-0.5 0.5,-0.5 0.5,0 0.5,-0.5 0,-0.5 0.5,-0.5 0.5,0 0.5,-0.5 0,-0.5 0,-1 0,-0.5 0.5,-0.5 0.5,0 0.5,-0.5 0,-0.5 0,-1 0,-0.5 0.5,-0.5 0.5,0 0.5,-0.5 0,-0.5 0,-1 0,-0.5 0.5,-0.5 0.5,0 0.5,-0.5 0,-0.5 0.5,-0.5 0.5,0 0.5,-0.5 0,-0.5 0,-1 0,-0.5 0.5,-0.5 0.5,0 0.5,-0.5 0,-0.5 0,-1 0,-0.5 0.5,-0.5 0.5,0 0.5,-0.5 0,-0.5 0.5,-0.5 0.5,0 0.5,-0.5 0,-0.5 0,-1 0,-0.5 0.5,-0.5 0.5,0 0.5,-0.5 0,-0.5 0,-1 0,-0.5 0.5,-0.5 0.5,0 0.5,-0.5 0,-0.5 0.5,-0.5 0.5,0 0.5,-0.5 0,-0.5 0,-1 0,-0.5 0.5,-0.5 0.5,0 0.5,-0.5 0,-0.5 0,-1 0,-0.5 0.5,-0.5 0.5,0 0.5,-0.5 0,-0.5 0,-1 0,-0.5 0.5,-0.5 0.5,0 0.5,-0.5 0,-0.5 0.5,-0.5 0.5,0 0.5,-0.5 0,-0.5 0,-1 0,-0.5 0.5,-0.5 0.5,0 0.5,-0.5 0,-0.5 0,-1 0,-0.5 0.5,-0.5 0.5,0 0.5,-0.5 0,-0.5 0,-1 0,-0.5 0.5,-0.5 0.5,0 0.5,-0.5 0,-0.5 0.5,-0.5 0.5,0 0.5,-0.5 0,-0.5 0,-1 0,-0.5 0.5,-0.5 0.5,0 0.5,-0.5 0,-0.5 0,-1 0,-0.5 0.5,-0.5 0.5,0 0.5,-0.5 0,-0.5 0.5,-0.5 0.5,0 0.5,-0.5 0,-0.5 0,-1 0,-0.5 0.5,-0.5 0.5,0 0.5,-0.5 0,-0.5 0,-1 0,-0.5 0.5,-0.5 0.5,0 0.5,-0.5 0,-0.5 0.5,-0.5 0.5,0 0.5,-0.5 0,-0.5 0,-1 0,-0.5 0.5,-0.5 0.5,0 0.5,-0.5 0,-0.5 0,-1 0,-0.5 0.5,-0.5 0.5,0 0.5,-0.5 0,-0.5 0,-1 0,-0.5 0.5,-0.5 0.5,0 0.5,-0.5 0,-0.5 0.5,-0.5 0.5,0 0.5,-0.5 0,-0.5 0,-1 0,-0.5 0.5,-0.5 0.5,0 0.5,-0.5 0,-0.5 0,-1 0,-0.5 0.5,-0.5 0.5,0 0.5,-0.5 0,-0.5 0.5,-0.5 0.5,0 0.5,-0.5 0,-0.5 0,-1 0,-0.5 0.5,-0.5 0.5,0 0.5,-0.5 0,-0.5 0,-1 0,-0.5 0.5,-0.5 0.5,0 0.5,-0.5 0,-0.5 0,-1 0,-0.5 0.5,-0.5 0.5,0 0.5,-0.5 0,-0.5 0.5,-0.5 0.5,0 0.5,-0.5 0,-0.5 0,-1 0,-0.5 0.5,-0.5 0.5,0 0.5,-0.5 0,-0.5 0,-1 0,-0.5 0.5,-0.5 0.5,0 0.5,-0.5 0,-0.5 0,-1 0,-0.5 0.5,-0.5 0.5,0 0.5,-0.5 0,-0.5 0.5,-0.5 0.5,0 0.5,-0.5 0,-0.5 0,-1 0,-0.5 0.5,-0.5 0.5,0 0.5,-0.5 0,-0.5 0,-1 0,-0.5 0.5,-0.5 0.5,0 0.5,-0.5 0,-0.5 0.5,-0.5 0.5,0 0.5,-0.5 0,-0.5 0,-1 0,-0.5 0.5,-0.5 0.5,0 0.5,-0.5 0,-0.5 0,-1 0,-0.5 0.5,-0.5 0.5,0 0.5,-0.5 0,-0.5 0.5,-0.5 0.5,0 0.5,-0.5 0,-0.5 0,-1 0,-0.5 0.5,-0.5 0.5,0 0.5,-0.5 0,-0.5 0,-1 0,-0.5 0.5,-0.5 0.5,0 0.5,-0.5 0,-0.5 0,-1 0,-0.5 0.5,-0.5 0.5,0 0.5,-0.5 0,-0.5 0.5,-0.5 h 0.5 v 0.5 0.5 0.5 0.5 0.5 0.5 0.5 0.5 0.5 0.5 0.5 0.5 0.5 0.5 0.5 0.5 0.5 0.5 0.5 0.5 0.5 0.5 0.5 0.5 0.5 0.5 0.5 0.5 0.5 0.5 0.5 0.5 0.5 0.5 0.5 0.5 0.5 0.5 0.5 0.5 0.5 0.5 0.5 0.5 0.5 0.5 0.5 0.5 0.5 0.5 0.5 0.5 0.5 0.5 0.5 0.5 0.5 0.5 0.5 0.5 0.5 0.5 0.5 0.5 0.5 0.5 0.5 0.5 0.5 0.5 0.5 0.5 0.5 0.5 0.5 0.5 0.5 0.5 0.5 0.5 0.5 0.5 0.5 0.5 0.5 0.5 0.5 0.5 0.5 0.5 0.5 0.5 0.5 0.5 0.5 0.5 0.5 0.5 0.5 0.5 0.5 0.5 0.5 0.5 0.5 0.5 0.5 0.5 0.5 0.5 0.5 0.5 0.5 0.5 0.5 0.5 0.5 0.5 0.5 0.5 0.5 0.5 0.5 0.5 0.5 0.5 0.5 0.5 0.5 0.5 0.5 0.5 0.5 0.5 0.5 0.5 0.5 0.5 0.5 0.5 0.5 0.5 0.5 0.5 0.5 0.5 0.5 0.5 0.5 0.5 0.5 0.5 0.5 0.5 0.5 0.5 0.5 0.5 0.5 0.5 0.5 0.5 0.5 0.5 0.5 0.5 0.5 0.5 0.5 0.5 0.5 0.5 0.5 0.5 0.5 0.5 0.5 0.5 0.5 0.5 0.5 0.5 0.5 0.5 0.5 0.5 0.5 0.5 0.5 0.5 0.5 0.5 0.5 0.5 0.5 0.5 0.5 0.5 0.5 0.5 0.5 0.5 0.5 0.5 0.5 0.5 0.5 0.5 0.5 0.5 0.5 0.5 0.5 0.5 0.5 0.5 0.5 0.5 0.5 0.5 0.5 0.5 0.5 0.5 0.5 0.5 0.5 0.5 0.5 0.5 0.5 0.5 0.5 0.5 0.5 0.5 0.5 0.5 0.5 0.5 0.5 0.5 0.5 0.5 0.5 0.5 0.5 0.5 0.5 0.5 0.5 0.5 0.5 0.5 0.5 0.5 0.5 0.5 0.5 0.5 0.5 0.5 0.5 0.5 0.5 0.5 0.5 0.5 0.5 0.5 0.5 0.5 0.5 0.5 0.5 0.5 0.5 0.5 0.5 0.5 0.5 0.5 0.5 0.5 0.5 0.5 0.5 0.5 0.5 0.5 0.5 0.5 0.5 0.5 0.5 0.5 0.5 0.5 0.5 0.5 0.5 0.5 0.5 0.5 0.5 0.5 0.5 0.5 0.5 0.5 0.5 0.5 0.5 0.5 0.5 0.5 0.5 0.5 0.5 0.5 0.5 0.5 0.5 0.5 0.5 0.5 0.5 0.5 0.5 0.5 0.5 0.5 0.5 0.5 0.5 0.5 0.5 0.5 0.5 0.5 0.5 0.5 0.5 0.5 0.5 0.5 0.5 0.5 0.5 0.5 0.5 0.5 0.5 0.5 0.5 0.5 0.5 0.5 0.5 0.5 0.5 0.5 0.5 0.5 0.5 0.5 0.5 0.5 0.5 0.5 0.5 0.5 0.5 0.5 H 209.5 209 208.5 208 207.5 207 206.5 206 205.5 205 204.5 204 203.5 203 202.5 202 201.5 201 200.5 200 199.5 199 198.5 198 197.5 197 196.5 196 195.5 195 194.5 194 193.5 193 192.5 192 191.5 191 190.5 190 189.5 189 188.5 188 187.5 187 186.5 186 185.5 185 184.5 184 183.5 183 182.5 182 181.5 181 180.5 180 179.5 179 178.5 178 177.5 177 176.5 176 175.5 175 174.5 174 173.5 173 172.5 172 171.5 171 170.5 170 169.5 169 168.5 168 167.5 167 166.5 166 165.5 165 164.5 164 163.5 163 162.5 162 161.5 161 160.5 160 159.5 159 158.5 158 157.5 157 156.5 156 155.5 155 154.5 154 153.5 153 152.5 152 151.5 151 150.5 150 149.5 149 148.5 148 147.5 147 146.5 146 145.5 145 144.5 144 143.5 143 142.5 142 141.5 141 140.5 140 139.5 139 138.5 138 137.5 137 136.5 136 135.5 135 134.5 134 133.5 133 132.5 132 131.5 131 130.5 130 129.5 129 128.5 128 127.5 127 126.5 126 125.5 125 124.5 124 123.5 123 122.5 122 121.5 121 120.5 120 119.5 119 118.5 118 117.5 117 116.5 116 115.5 115 114.5 114 113.5 113 112.5 112 111.5 111 110.5 110 109.5 109 108.5 108 107.5 107 106.5 106 105.5 105 104.5 104 103.5 103 102.5 102 101.5 101 100.5 100 99.5 99 98.5 98 97.5 97 96.5 96 95.5 95 94.5 94 93.5 93 92.5 92 91.5 91 90.5 90 89.5 89 88.5 88 87.5 87 86.5 86 85.5 85 84.5 84 83.5 83 82.5 82 81.5 81 80.5 80 79.5 79 78.5 78 77.5 77 76.5 76 75.5 75 74.5 74 73.5 73 72.5 72 71.5 71 70.5 70 69.5 69 68.5 68 67.5 67 66.5 66 65.5 65 64.5 64 63.5 63 62.5 62 61.5 61 60.5 60 59.5 59 58.5 58 57.5 57 56.5 56 55.5 55 54.5 54 53.5 53 52.5 52 51.5 51 50.5 50 49.5 49 48.5 48 47.5 47 46.5 46 45.5 45 44.5 44 43.5 43 42.5 42 41.5 41 40.5 40 39.5 39 38.5 38 37.5 37 36.5 36 35.5 35 34.5 34 33.5 33 32.5 32 31.5 31 30.5 30 29.5 29 28.5 28 27.5 27 26.5 26 25.5 25 24.5 24 23.5 23 22.5 22 21.5 21 20.5 20 19.5 19 18.5 18 17.5 17 16.5 16 15.5 15 14.5 14 13.5 13 12.5 12 11.5 11 10.5 10 9.5 9 8.5 8 7.5 7 6.5 6 5.5 5 4.5 4 3.5 3 2.5 2 1.5 1 0.5 0 V 200.5 200 199.5 199 198.5 198 197.5 197 196.5 196 195.5 195 194.5 194 193.5 193 192.5 192 191.5 191 190.5 190 189.5 189 188.5 188 187.5 187 186.5 186 185.5 185 184.5 184 183.5 183 182.5 182 181.5 181 180.5 180 179.5 179 178.5 178 177.5 177 176.5 176 175.5 175 174.5 174 173.5 173 172.5 172 171.5 171 170.5 170 169.5 169 168.5 168 167.5 167 166.5 166 165.5 165 164.5 164 163.5 163 162.5 162 161.5 161 160.5 160 159.5 159 158.5 158 157.5 157 156.5 156 155.5 155 154.5 154 153.5 153 152.5 152 151.5 151 150.5 150 149.5 149 148.5 148 147.5 147 146.5 146 145.5 145 144.5 144 143.5 143 142.5 142 141.5 141 140.5 140 139.5 139 138.5 138 137.5 137 136.5 136 135.5 135 134.5 134 133.5 133 132.5 132 131.5 131 130.5 130 129.5 129 128.5 128 127.5 127 126.5 126 125.5 125 124.5 124 123.5 123 122.5 122 121.5 121 120.5 120 119.5 119 118.5 118 117.5 117 116.5 116 115.5 115 114.5 114 113.5 113 112.5 112 111.5 111 110.5 110 109.5 109 108.5 108 107.5 107 106.5 106 105.5 105 104.5 104 103.5 103 102.5 102 101.5 101 100.5 100 99.5 99 98.5 98 97.5 97 96.5 96 95.5 95 94.5 94 93.5 93 92.5 92 91.5 91 90.5 90 89.5 89 88.5 88 87.5 87 86.5 86 85.5 85 84.5 84 83.5 83 82.5 82 81.5 81 80.5 80 79.5 79 78.5 78 77.5 77 76.5 76 75.5 75 74.5 74 73.5 73 72.5 72 71.5 71 70.5 70 69.5 69 68.5 68 67.5 67 66.5 66 65.5 65 64.5 64 63.5 63 62.5 62 61.5 61 60.5 60 59.5 59 58.5 58 57.5 57 56.5 56 55.5 55 54.5 54 53.5 53 52.5 52 51.5 51 50.5 50 49.5 49 48.5 48 47.5 47 46.5 46 45.5 45 44.5 44 43.5 43 42.5 42 41.5 41 40.5 40 39.5 39 38.5 38 37.5 37 36.5 36 35.5 35 34.5 34 33.5 33 32.5 32 31.5 31 30.5 30 29.5 29 28.5 28 27.5 27 26.5 26 25.5 25 24.5 24 23.5 23 22.5 22 21.5 21 20.5 20 19.5 19 18.5 18 17.5 17 16.5 16 15.5 15 14.5"
       id="path11"
       inkscape:connector-curvature="0" />
    <path
       style="fill:#000000;fill-opacity:0"
       d="m 27,28.5 q 0,-0.5 0.5,-0.5 0.5,0 1,0 0.5,0 1,0 0.5,0 1,0 0.5,0 1,0 0.5,0 1,0 0.5,0 1,0 0.5,0 1,0 0.5,0 1,0 0.5,0 1,0 0.5,0 1,0 0.5,0 1,0 0.5,0 1,0 0.5,0 1,0 0.5,0 1,0 0.5,0 1,0 0.5,0 1,0 0.5,0 1,0 0.5,0 1,0 0.5,0 1,0 0.5,0 1,0 0.5,0 1,0 0.5,0 1,0 0.5,0 1,0 0.5,0 1,0 0.5,0 0.5,0.5 0,0.5 0,1 0,0.5 0.5,0.5 0.5,0 0.5,0.5 0,0.5 0,1 0,0.5 0.5,0.5 0.5,0 0.5,0.5 0,0.5 0.5,0.5 0.5,0 0.5,0.5 0,0.5 0,1 0,0.5 0.5,0.5 0.5,0 0.5,0.5 0,0.5 0,1 0,0.5 0.5,0.5 0.5,0 0.5,0.5 0,0.5 0,1 0,0.5 0.5,0.5 0.5,0 0.5,0.5 0,0.5 0.5,0.5 0.5,0 0.5,0.5 0,0.5 0,1 0,0.5 0.5,0.5 0.5,0 0.5,0.5 0,0.5 0,1 0,0.5 0.5,0.5 0.5,0 0.5,0.5 0,0.5 0.5,0.5 0.5,0 0.5,0.5 0,0.5 0,1 0,0.5 0.5,0.5 0.5,0 0.5,0.5 0,0.5 0,1 0,0.5 0.5,0.5 0.5,0 0.5,0.5 0,0.5 0,1 0,0.5 0.5,0.5 0.5,0 0.5,0.5 0,0.5 0.5,0.5 0.5,0 0.5,0.5 0,0.5 0,1 0,0.5 0.5,0.5 0.5,0 0.5,0.5 0,0.5 0,1 0,0.5 0.5,0.5 0.5,0 0.5,0.5 0,0.5 0,1 0,0.5 0.5,0.5 0.5,0 0.5,0.5 0,0.5 0.5,0.5 0.5,0 0.5,0.5 0,0.5 0,1 0,0.5 0.5,0.5 0.5,0 0.5,0.5 0,0.5 0,1 0,0.5 0.5,0.5 0.5,0 0.5,0.5 0,0.5 0,1 0,0.5 0.5,0.5 0.5,0 0.5,0.5 0,0.5 0.5,0.5 0.5,0 0.5,0.5 0,0.5 0,1 0,0.5 0.5,0.5 0.5,0 0.5,0.5 0,0.5 0,1 0,0.5 0.5,0.5 0.5,0 0.5,0.5 0,0.5 0.5,0.5 0.5,0 0.5,0.5 0,0.5 0,1 0,0.5 0.5,0.5 0.5,0 0.5,0.5 0,0.5 0,1 0,0.5 0.5,0.5 0.5,0 0.5,0.5 0,0.5 0,1 0,0.5 0.5,0.5 0.5,0 0.5,0.5 0,0.5 0.5,0.5 0.5,0 0.5,0.5 0,0.5 0,1 0,0.5 0.5,0.5 0.5,0 0.5,0.5 0,0.5 0,1 0,0.5 0.5,0.5 0.5,0 0.5,0.5 0,0.5 0,1 0,0.5 0.5,0.5 0.5,0 0.5,0.5 0,0.5 0.5,0.5 0.5,0 0.5,0.5 0,0.5 0,1 0,0.5 0.5,0.5 0.5,0 0.5,0.5 0,0.5 0,1 0,0.5 0.5,0.5 0.5,0 0.5,0.5 0,0.5 0.5,0.5 0.5,0 0.5,0.5 0,0.5 0,1 0,0.5 0.5,0.5 0.5,0 0.5,0.5 0,0.5 0,1 0,0.5 0.5,0.5 0.5,0 0.5,0.5 0,0.5 0,1 0,0.5 0.5,0.5 0.5,0 0.5,0.5 0,0.5 0.5,0.5 0.5,0 0.5,0.5 0,0.5 0,1 0,0.5 0.5,0.5 0.5,0 0.5,0.5 0,0.5 0,1 0,0.5 0.5,0.5 0.5,0 0.5,0.5 0,0.5 0,1 0,0.5 0.5,0.5 0.5,0 0.5,0.5 0,0.5 0.5,0.5 0.5,0 0.5,0.5 0,0.5 0,1 0,0.5 0.5,0.5 0.5,0 0.5,0.5 0,0.5 0,1 0,0.5 0.5,0.5 0.5,0 0.5,0.5 0,0.5 0.5,0.5 0.5,0 0.5,0.5 0,0.5 0,1 0,0.5 0.5,0.5 0.5,0 0.5,0.5 0,0.5 0,1 0,0.5 0.5,0.5 0.5,0 0.5,0.5 0,0.5 0,1 0,0.5 0.5,0.5 0.5,0 0.5,0.5 0,0.5 0.5,0.5 0.5,0 0.5,0.5 0,0.5 0,1 0,0.5 0.5,0.5 0.5,0 0.5,0.5 0,0.5 0,1 0,0.5 0.5,0.5 0.5,0 1,0 0.5,0 0.5,-0.5 0,-0.5 0,-1 0,-0.5 0.5,-0.5 0.5,0 0.5,-0.5 0,-0.5 0,-1 0,-0.5 0.5,-0.5 0.5,0 0.5,-0.5 0,-0.5 0.5,-0.5 0.5,0 0.5,-0.5 0,-0.5 0,-1 0,-0.5 0.5,-0.5 0.5,0 0.5,-0.5 0,-0.5 0,-1 0,-0.5 0.5,-0.5 0.5,0 0.5,-0.5 0,-0.5 0,-1 0,-0.5 0.5,-0.5 0.5,0 0.5,-0.5 0,-0.5 0.5,-0.5 0.5,0 0.5,-0.5 0,-0.5 0,-1 0,-0.5 0.5,-0.5 0.5,0 0.5,-0.5 0,-0.5 0,-1 0,-0.5 0.5,-0.5 0.5,0 0.5,-0.5 0,-0.5 0.5,-0.5 0.5,0 0.5,-0.5 0,-0.5 0,-1 0,-0.5 0.5,-0.5 0.5,0 0.5,-0.5 0,-0.5 0,-1 0,-0.5 0.5,-0.5 0.5,0 0.5,-0.5 0,-0.5 0,-1 0,-0.5 0.5,-0.5 0.5,0 0.5,-0.5 0,-0.5 0.5,-0.5 0.5,0 0.5,-0.5 0,-0.5 0,-1 0,-0.5 0.5,-0.5 0.5,0 0.5,-0.5 0,-0.5 0,-1 0,-0.5 0.5,-0.5 0.5,0 0.5,-0.5 0,-0.5 0,-1 0,-0.5 0.5,-0.5 0.5,0 0.5,-0.5 0,-0.5 0.5,-0.5 0.5,0 0.5,-0.5 0,-0.5 0,-1 0,-0.5 0.5,-0.5 0.5,0 0.5,-0.5 0,-0.5 0,-1 0,-0.5 0.5,-0.5 0.5,0 0.5,-0.5 0,-0.5 0,-1 0,-0.5 0.5,-0.5 0.5,0 0.5,-0.5 0,-0.5 0.5,-0.5 0.5,0 0.5,-0.5 0,-0.5 0,-1 0,-0.5 0.5,-0.5 0.5,0 0.5,-0.5 0,-0.5 0,-1 0,-0.5 0.5,-0.5 0.5,0 0.5,-0.5 0,-0.5 0.5,-0.5 0.5,0 0.5,-0.5 0,-0.5 0,-1 0,-0.5 0.5,-0.5 0.5,0 0.5,-0.5 0,-0.5 0,-1 0,-0.5 0.5,-0.5 0.5,0 0.5,-0.5 0,-0.5 0,-1 0,-0.5 0.5,-0.5 0.5,0 0.5,-0.5 0,-0.5 0.5,-0.5 0.5,0 0.5,-0.5 0,-0.5 0,-1 0,-0.5 0.5,-0.5 0.5,0 0.5,-0.5 0,-0.5 0,-1 0,-0.5 0.5,-0.5 0.5,0 0.5,-0.5 0,-0.5 0,-1 0,-0.5 0.5,-0.5 0.5,0 0.5,-0.5 0,-0.5 0.5,-0.5 0.5,0 0.5,-0.5 0,-0.5 0,-1 0,-0.5 0.5,-0.5 0.5,0 0.5,-0.5 0,-0.5 0,-1 0,-0.5 0.5,-0.5 0.5,0 0.5,-0.5 0,-0.5 0,-1 0,-0.5 0.5,-0.5 0.5,0 0.5,-0.5 0,-0.5 0.5,-0.5 0.5,0 0.5,-0.5 0,-0.5 0,-1 0,-0.5 0.5,-0.5 0.5,0 0.5,-0.5 0,-0.5 0,-1 0,-0.5 0.5,-0.5 0.5,0 0.5,-0.5 0,-0.5 0.5,-0.5 0.5,0 0.5,-0.5 0,-0.5 0,-1 0,-0.5 0.5,-0.5 0.5,0 0.5,-0.5 0,-0.5 0,-1 0,-0.5 0.5,-0.5 0.5,0 0.5,-0.5 0,-0.5 0,-1 0,-0.5 0.5,-0.5 0.5,0 0.5,-0.5 0,-0.5 0.5,-0.5 0.5,0 0.5,-0.5 0,-0.5 0,-1 0,-0.5 0.5,-0.5 0.5,0 0.5,-0.5 0,-0.5 0,-1 0,-0.5 0.5,-0.5 0.5,0 0.5,-0.5 0,-0.5 0,-1 0,-0.5 0.5,-0.5 0.5,0 0.5,-0.5 0,-0.5 0.5,-0.5 0.5,0 0.5,-0.5 0,-0.5 0,-1 0,-0.5 0.5,-0.5 0.5,0 0.5,-0.5 0,-0.5 0,-1 0,-0.5 0.5,-0.5 0.5,0 0.5,-0.5 0,-0.5 0,-1 0,-0.5 0.5,-0.5 0.5,0 0.5,-0.5 0,-0.5 0.5,-0.5 0.5,0 0.5,-0.5 0,-0.5 0,-1 0,-0.5 0.5,-0.5 0.5,0 1,0 0.5,0 1,0 0.5,0 1,0 0.5,0 1,0 0.5,0 1,0 0.5,0 1,0 0.5,0 1,0 0.5,0 1,0 0.5,0 1,0 0.5,0 1,0 0.5,0 1,0 0.5,0 1,0 0.5,0 1,0 0.5,0 1,0 0.5,0 1,0 0.5,0 1,0 0.5,0 1,0 0.5,0 1,0 0.5,0 1,0 0.5,0 1,0 0.5,0 1,0 0.5,0 1,0 0.5,0 1,0 0.5,0 1,0 0.5,0 0.5,0.5 0,0.5 -0.5,0.5 -0.5,0 -0.5,0.5 0,0.5 -0.5,0.5 -0.5,0 -0.5,0.5 0,0.5 0,1 0,0.5 -0.5,0.5 -0.5,0 -0.5,0.5 0,0.5 0,1 0,0.5 -0.5,0.5 -0.5,0 -0.5,0.5 0,0.5 0,1 0,0.5 -0.5,0.5 -0.5,0 -0.5,0.5 0,0.5 -0.5,0.5 -0.5,0 -0.5,0.5 0,0.5 0,1 0,0.5 -0.5,0.5 -0.5,0 -0.5,0.5 0,0.5 0,1 0,0.5 -0.5,0.5 -0.5,0 -0.5,0.5 0,0.5 -0.5,0.5 -0.5,0 -0.5,0.5 0,0.5 0,1 0,0.5 -0.5,0.5 -0.5,0 -0.5,0.5 0,0.5 0,1 0,0.5 -0.5,0.5 -0.5,0 -0.5,0.5 0,0.5 0,1 0,0.5 -0.5,0.5 -0.5,0 -0.5,0.5 0,0.5 -0.5,0.5 -0.5,0 -0.5,0.5 0,0.5 0,1 0,0.5 -0.5,0.5 -0.5,0 -0.5,0.5 0,0.5 0,1 0,0.5 -0.5,0.5 -0.5,0 -0.5,0.5 0,0.5 -0.5,0.5 -0.5,0 -0.5,0.5 0,0.5 0,1 0,0.5 -0.5,0.5 -0.5,0 -0.5,0.5 0,0.5 0,1 0,0.5 -0.5,0.5 -0.5,0 -0.5,0.5 0,0.5 0,1 0,0.5 -0.5,0.5 -0.5,0 -0.5,0.5 0,0.5 -0.5,0.5 -0.5,0 -0.5,0.5 0,0.5 0,1 0,0.5 -0.5,0.5 -0.5,0 -0.5,0.5 0,0.5 0,1 0,0.5 -0.5,0.5 -0.5,0 -0.5,0.5 0,0.5 -0.5,0.5 -0.5,0 -0.5,0.5 0,0.5 0,1 0,0.5 -0.5,0.5 -0.5,0 -0.5,0.5 0,0.5 0,1 0,0.5 -0.5,0.5 -0.5,0 -0.5,0.5 0,0.5 0,1 0,0.5 -0.5,0.5 -0.5,0 -0.5,0.5 0,0.5 -0.5,0.5 -0.5,0 -0.5,0.5 0,0.5 0,1 0,0.5 -0.5,0.5 -0.5,0 -0.5,0.5 0,0.5 0,1 0,0.5 -0.5,0.5 -0.5,0 -0.5,0.5 0,0.5 -0.5,0.5 -0.5,0 -0.5,0.5 0,0.5 0,1 0,0.5 -0.5,0.5 -0.5,0 -0.5,0.5 0,0.5 0,1 0,0.5 -0.5,0.5 -0.5,0 -0.5,0.5 0,0.5 0,1 0,0.5 -0.5,0.5 -0.5,0 -0.5,0.5 0,0.5 -0.5,0.5 -0.5,0 -0.5,0.5 0,0.5 0,1 0,0.5 -0.5,0.5 -0.5,0 -0.5,0.5 0,0.5 0,1 0,0.5 -0.5,0.5 -0.5,0 -0.5,0.5 0,0.5 -0.5,0.5 -0.5,0 -0.5,0.5 0,0.5 0,1 0,0.5 -0.5,0.5 -0.5,0 -0.5,0.5 0,0.5 0,1 0,0.5 -0.5,0.5 -0.5,0 -0.5,0.5 0,0.5 0,1 0,0.5 -0.5,0.5 -0.5,0 -0.5,0.5 0,0.5 -0.5,0.5 -0.5,0 -0.5,0.5 0,0.5 0,1 0,0.5 -0.5,0.5 -0.5,0 -0.5,0.5 0,0.5 0,1 0,0.5 -0.5,0.5 -0.5,0 -0.5,0.5 0,0.5 -0.5,0.5 -0.5,0 -0.5,0.5 0,0.5 0,1 0,0.5 -0.5,0.5 -0.5,0 -0.5,0.5 0,0.5 0,1 0,0.5 -0.5,0.5 -0.5,0 -0.5,0.5 0,0.5 0,1 0,0.5 -0.5,0.5 -0.5,0 -0.5,0.5 0,0.5 -0.5,0.5 -0.5,0 -0.5,0.5 0,0.5 0,1 0,0.5 -0.5,0.5 -0.5,0 -0.5,0.5 0,0.5 0,1 0,0.5 -0.5,0.5 -0.5,0 -0.5,0.5 0,0.5 -0.5,0.5 -0.5,0 -0.5,0.5 0,0.5 0,1 0,0.5 -0.5,0.5 -0.5,0 -0.5,0.5 0,0.5 0,1 0,0.5 -0.5,0.5 -0.5,0 -0.5,0.5 0,0.5 0,1 0,0.5 -0.5,0.5 -0.5,0 -0.5,0.5 0,0.5 -0.5,0.5 -0.5,0 -0.5,0.5 0,0.5 0,1 0,0.5 -0.5,0.5 -0.5,0 -0.5,0.5 0,0.5 0,1 0,0.5 -0.5,0.5 -0.5,0 -0.5,0.5 0,0.5 -0.5,0.5 -0.5,0 -0.5,0.5 0,0.5 0,1 0,0.5 -0.5,0.5 -0.5,0 -0.5,0.5 0,0.5 0,1 0,0.5 -0.5,0.5 -0.5,0 -0.5,0.5 0,0.5 0,1 0,0.5 -0.5,0.5 -0.5,0 -0.5,0.5 0,0.5 -0.5,0.5 -0.5,0 -0.5,0.5 0,0.5 0,1 0,0.5 -0.5,0.5 -0.5,0 -0.5,0.5 0,0.5 0,1 0,0.5 -0.5,0.5 -0.5,0 -0.5,0.5 0,0.5 -0.5,0.5 -0.5,0 -0.5,0.5 0,0.5 0,1 0,0.5 -0.5,0.5 -0.5,0 -0.5,0.5 0,0.5 0,1 0,0.5 -0.5,0.5 -0.5,0 -0.5,0.5 0,0.5 0,1 0,0.5 -0.5,0.5 -0.5,0 -0.5,0.5 0,0.5 -0.5,0.5 -0.5,0 -0.5,0.5 0,0.5 0,1 0,0.5 -0.5,0.5 -0.5,0 -0.5,0.5 0,0.5 0,1 0,0.5 -0.5,0.5 -0.5,0 -0.5,0.5 0,0.5 -0.5,0.5 -0.5,0 -0.5,0.5 0,0.5 0,1 0,0.5 -0.5,0.5 -0.5,0 -0.5,0.5 0,0.5 0,1 0,0.5 -0.5,0.5 -0.5,0 -0.5,0.5 0,0.5 0,1 0,0.5 -0.5,0.5 -0.5,0 -0.5,0.5 0,0.5 -0.5,0.5 -0.5,0 -0.5,0.5 0,0.5 0,1 0,0.5 -0.5,0.5 -0.5,0 -0.5,0.5 0,0.5 0,1 0,0.5 -0.5,0.5 -0.5,0 -1,0 -0.5,0 -0.5,-0.5 0,-0.5 0,-1 0,-0.5 -0.5,-0.5 -0.5,0 -0.5,-0.5 0,-0.5 0,-1 0,-0.5 -0.5,-0.5 -0.5,0 -0.5,-0.5 0,-0.5 -0.5,-0.5 -0.5,0 -0.5,-0.5 0,-0.5 0,-1 0,-0.5 -0.5,-0.5 -0.5,0 -0.5,-0.5 0,-0.5 0,-1 0,-0.5 -0.5,-0.5 -0.5,0 -0.5,-0.5 0,-0.5 0,-1 0,-0.5 -0.5,-0.5 -0.5,0 -0.5,-0.5 0,-0.5 -0.5,-0.5 -0.5,0 -0.5,-0.5 0,-0.5 0,-1 0,-0.5 -0.5,-0.5 -0.5,0 -0.5,-0.5 0,-0.5 0,-1 0,-0.5 -0.5,-0.5 -0.5,0 -0.5,-0.5 0,-0.5 -0.5,-0.5 -0.5,0 -0.5,-0.5 0,-0.5 0,-1 0,-0.5 -0.5,-0.5 -0.5,0 -0.5,-0.5 0,-0.5 0,-1 0,-0.5 -0.5,-0.5 -0.5,0 -0.5,-0.5 0,-0.5 0,-1 0,-0.5 -0.5,-0.5 -0.5,0 -0.5,-0.5 0,-0.5 -0.5,-0.5 -0.5,0 -0.5,-0.5 0,-0.5 0,-1 0,-0.5 -0.5,-0.5 -0.5,0 -0.5,-0.5 0,-0.5 0,-1 0,-0.5 -0.5,-0.5 -0.5,0 -0.5,-0.5 0,-0.5 -0.5,-0.5 -0.5,0 -0.5,-0.5 0,-0.5 0,-1 0,-0.5 -0.5,-0.5 -0.5,0 -0.5,-0.5 0,-0.5 0,-1 0,-0.5 -0.5,-0.5 -0.5,0 -0.5,-0.5 0,-0.5 0,-1 0,-0.5 -0.5,-0.5 -0.5,0 -0.5,-0.5 0,-0.5 -0.5,-0.5 -0.5,0 -0.5,-0.5 0,-0.5 0,-1 0,-0.5 -0.5,-0.5 -0.5,0 -0.5,-0.5 0,-0.5 0,-1 0,-0.5 -0.5,-0.5 -0.5,0 -0.5,-0.5 0,-0.5 -0.5,-0.5 -0.5,0 -0.5,-0.5 0,-0.5 0,-1 0,-0.5 -0.5,-0.5 -0.5,0 -0.5,-0.5 0,-0.5 0,-1 0,-0.5 -0.5,-0.5 -0.5,0 -0.5,-0.5 0,-0.5 0,-1 0,-0.5 -0.5,-0.5 -0.5,0 -0.5,-0.5 0,-0.5 -0.5,-0.5 -0.5,0 -0.5,-0.5 0,-0.5 0,-1 0,-0.5 -0.5,-0.5 -0.5,0 -0.5,-0.5 0,-0.5 0,-1 0,-0.5 -0.5,-0.5 -0.5,0 -0.5,-0.5 0,-0.5 -0.5,-0.5 -0.5,0 -0.5,-0.5 0,-0.5 0,-1 0,-0.5 -0.5,-0.5 -0.5,0 -0.5,-0.5 0,-0.5 0,-1 0,-0.5 -0.5,-0.5 -0.5,0 -0.5,-0.5 0,-0.5 0,-1 Q 71,102 70.5,102 70,102 70,101.5 70,101 69.5,101 69,101 69,100.5 69,100 69,99.5 69,99 68.5,99 68,99 68,98.5 68,98 68,97.5 68,97 67.5,97 67,97 67,96.5 67,96 66.5,96 66,96 66,95.5 66,95 66,94.5 66,94 65.5,94 65,94 65,93.5 65,93 65,92.5 65,92 64.5,92 64,92 64,91.5 64,91 63.5,91 63,91 63,90.5 63,90 63,89.5 63,89 62.5,89 62,89 62,88.5 62,88 62,87.5 62,87 61.5,87 61,87 61,86.5 61,86 61,85.5 61,85 60.5,85 60,85 60,84.5 60,84 59.5,84 59,84 59,83.5 59,83 59,82.5 59,82 58.5,82 58,82 58,81.5 58,81 58,80.5 58,80 57.5,80 57,80 57,79.5 57,79 57,78.5 57,78 56.5,78 56,78 56,77.5 56,77 55.5,77 55,77 55,76.5 55,76 55,75.5 55,75 54.5,75 54,75 54,74.5 54,74 54,73.5 54,73 53.5,73 53,73 53,72.5 53,72 52.5,72 52,72 52,71.5 52,71 52,70.5 52,70 51.5,70 51,70 51,69.5 51,69 51,68.5 51,68 50.5,68 50,68 50,67.5 50,67 49.5,67 49,67 49,66.5 49,66 49,65.5 49,65 48.5,65 48,65 48,64.5 48,64 48,63.5 48,63 47.5,63 47,63 47,62.5 47,62 47,61.5 47,61 46.5,61 46,61 46,60.5 46,60 45.5,60 45,60 45,59.5 45,59 45,58.5 45,58 44.5,58 44,58 44,57.5 44,57 44,56.5 44,56 43.5,56 43,56 43,55.5 43,55 42.5,55 42,55 42,54.5 42,54 42,53.5 42,53 41.5,53 41,53 41,52.5 41,52 41,51.5 41,51 40.5,51 40,51 40,50.5 40,50 40,49.5 40,49 39.5,49 39,49 39,48.5 39,48 38.5,48 38,48 38,47.5 38,47 38,46.5 38,46 37.5,46 37,46 37,45.5 37,45 37,44.5 37,44 36.5,44 36,44 36,43.5 36,43 35.5,43 35,43 35,42.5 35,42 35,41.5 35,41 34.5,41 34,41 34,40.5 34,40 34,39.5 34,39 33.5,39 33,39 33,38.5 33,38 33,37.5 33,37 32.5,37 32,37 32,36.5 32,36 31.5,36 31,36 31,35.5 31,35 31,34.5 31,34 30.5,34 30,34 30,33.5 30,33 30,32.5 30,32 29.5,32 29,32 29,31.5 29,31 28.5,31 28,31 28,30.5 28,30 28,29.5 28,29 27.5,29 27,29 27,28.5"
       id="path13"
       inkscape:connector-curvature="0" />
  </g>
</svg>
